<svg xmlns="http://www.w3.org/2000/svg" width="594.6036376953125" height="606.5733642578125" viewBox="-227.38119506835938 -228.93692016601562 594.6036376953125 606.5733642578125"><title>Neo4j Graph Visualization</title><desc>Created using Neo4j (http://www.neo4j.com/)</desc><g class="layer relationships"><g class="relationship" transform="translate(189.88142265293965 316.5466314859724) rotate(243.15230927327775)"><path class="outline" fill="#A5ABB6" stroke="none" d="M 25 0.5 L 88.29211887148503 0.5 L 88.29211887148503 -0.5 L 25 -0.5 Z M 174.78430637148503 0.5 L 238.07642524297006 0.5 L 238.07642524297006 3.5 L 245.07642524297006 0 L 238.07642524297006 -3.5 L 238.07642524297006 -0.5 L 174.78430637148503 -0.5 Z"/><text text-anchor="middle" pointer-events="none" font-size="8px" fill="#000000" x="131.53821262148503" y="3" transform="rotate(180 131.53821262148503 0)" font-family="sans-serif">is_in_relationship_with</text></g><g class="relationship" transform="translate(145.68416368247574 276.091961454874) rotate(248.7995189342107)"><path class="outline" fill="#A5ABB6" stroke="none" d="M 25 0.5 L 60.786787327505735 0.5 L 60.786787327505735 -0.5 L 25 -0.5 Z M 147.27897482750575 0.5 L 183.06576215501147 0.5 L 183.06576215501147 3.5 L 190.06576215501147 0 L 183.06576215501147 -3.5 L 183.06576215501147 -0.5 L 147.27897482750575 -0.5 Z"/><text text-anchor="middle" pointer-events="none" font-size="8px" fill="#000000" x="104.03288107750573" y="3" transform="rotate(180 104.03288107750573 0)" font-family="sans-serif">is_in_relationship_with</text></g><g class="relationship" transform="translate(-198.38118868287143 73.84809193742697) rotate(360.37299924869893)"><path class="outline" fill="#A5ABB6" stroke="none" d="M 25 0.5 L 86.40203024336205 0.5 L 86.40203024336205 -0.5 L 25 -0.5 Z M 172.89421774336205 0.5 L 234.2962479867241 0.5 L 234.2962479867241 3.5 L 241.2962479867241 0 L 234.2962479867241 -3.5 L 234.2962479867241 -0.5 L 172.89421774336205 -0.5 Z"/><text text-anchor="middle" pointer-events="none" font-size="8px" fill="#000000" x="129.64812399336205" y="3" font-family="sans-serif">is_in_relationship_with</text></g><g class="relationship" transform="translate(281.42464286187464 248.91077340274802) rotate(219.06927582324414)"><path class="outline" fill="#A5ABB6" stroke="none" d="M 25 0.5 L 90.76001941106827 0.5 L 90.76001941106827 -0.5 L 25 -0.5 Z M 177.25220691106827 0.5 L 243.01222632213654 0.5 L 243.01222632213654 3.5 L 250.01222632213654 0 L 243.01222632213654 -3.5 L 243.01222632213654 -0.5 L 177.25220691106827 -0.5 Z"/><text text-anchor="middle" pointer-events="none" font-size="8px" fill="#000000" x="134.00611316106827" y="3" transform="rotate(180 134.00611316106827 0)" font-family="sans-serif">is_in_relationship_with</text></g><g class="relationship" transform="translate(-114.8760118560223 188.45933383247734) rotate(328.3029346999351)"><path class="outline" fill="#A5ABB6" stroke="none" d="M 24.018736134675446,-6.953439040707552 L 24.277555179777966,-5.987513214418485 A 317.6301872966601 317.6301872966601 0 0 1 60.869567402659605,-13.517789764632823 L 60.72595155198364,-14.507423276310021 A 318.6301872966601 318.6301872966601 0 0 0 24.018736134675446,-6.953439040707552 Z M 147.08463385039533,-15.21349278668157 L 146.95721862573254,-14.221643322032776 A 317.6301872966601 317.6301872966601 0 0 1 183.66746604467255,-7.290686830866927 L 182.93849406235006,-4.380600947428295 L 190.5791617697498,-6.074766519354189 L 184.63942868776923,-11.170801342118436 L 183.91045670544673,-8.260715458679805 A 318.6301872966601 318.6301872966601 0 0 0 147.08463385039533,-15.21349278668157"/><text text-anchor="middle" pointer-events="none" font-size="8px" fill="#000000" x="103.88534806837139" y="-14.299866876938268" font-family="sans-serif">is_in_relationship_with</text></g><g class="relationship" transform="translate(-114.8760118560223 188.45933383247734) rotate(328.3029346999351)"><path class="outline" fill="#A5ABB6" stroke="none" d="M 24.018736134675446,6.953439040707552 L 24.277555179777966,5.987513214418485 A 317.6301872966601 317.6301872966601 0 0 0 60.869567402659605,13.517789764632823 L 60.72595155198364,14.507423276310021 A 318.6301872966601 318.6301872966601 0 0 1 24.018736134675446,6.953439040707552 Z M 147.08463385039542,15.21349278668157 L 146.9572186257326,14.221643322032776 A 317.6301872966601 317.6301872966601 0 0 0 183.66746604467255,7.290686830866927 L 182.93849406235006,4.380600947428295 L 190.5791617697498,6.074766519354189 L 184.63942868776923,11.170801342118436 L 183.91045670544673,8.260715458679805 A 318.6301872966601 318.6301872966601 0 0 1 147.08463385039542,15.21349278668157"/><text text-anchor="middle" pointer-events="none" font-size="8px" fill="#000000" x="103.88534806837143" y="20.299866876938268" font-family="sans-serif">is_in_relationship_with</text></g><g class="relationship" transform="translate(324.94254692428956 6.294331331581999) rotate(524.9136122156253)"><path class="outline" fill="#A5ABB6" stroke="none" d="M 25 0.5 L 86.35797047730742 0.5 L 86.35797047730742 -0.5 L 25 -0.5 Z M 172.85015797730742 0.5 L 234.20812845461484 0.5 L 234.20812845461484 3.5 L 241.20812845461484 0 L 234.20812845461484 -3.5 L 234.20812845461484 -0.5 L 172.85015797730742 -0.5 Z"/><text text-anchor="middle" pointer-events="none" font-size="8px" fill="#000000" x="129.60406422730742" y="3" transform="rotate(180 129.60406422730742 0)" font-family="sans-serif">is_in_relationship_with</text></g><g class="relationship" transform="translate(-89.95228970561124 279.83369012637183) rotate(307.69961669322754)"><path class="outline" fill="#A5ABB6" stroke="none" d="M 25 0.5 L 82.32675352197674 0.5 L 82.32675352197674 -0.5 L 25 -0.5 Z M 168.81894102197674 0.5 L 226.14569454395348 0.5 L 226.14569454395348 3.5 L 233.14569454395348 0 L 226.14569454395348 -3.5 L 226.14569454395348 -0.5 L 168.81894102197674 -0.5 Z"/><text text-anchor="middle" pointer-events="none" font-size="8px" fill="#000000" x="125.57284727197674" y="3" font-family="sans-serif">is_in_relationship_with</text></g><g class="relationship" transform="translate(99.57398327872782 235.15925286356293) rotate(258.7767297290343)"><path class="outline" fill="#A5ABB6" stroke="none" d="M 25 0.5 L 34.59830491791831 0.5 L 34.59830491791831 -0.5 L 25 -0.5 Z M 121.09049241791831 0.5 L 130.68879733583663 0.5 L 130.68879733583663 3.5 L 137.68879733583663 0 L 130.68879733583663 -3.5 L 130.68879733583663 -0.5 L 121.09049241791831 -0.5 Z"/><text text-anchor="middle" pointer-events="none" font-size="8px" fill="#000000" x="77.84439866791831" y="3" transform="rotate(180 77.84439866791831 0)" font-family="sans-serif">is_in_relationship_with</text></g><g class="relationship" transform="translate(-45.7931318350536 320.4090537490542) rotate(294.9110637864488)"><path class="outline" fill="#A5ABB6" stroke="none" d="M 25 0.5 L 88.22493061973833 0.5 L 88.22493061973833 -0.5 L 25 -0.5 Z M 174.71711811973833 0.5 L 237.94204873947666 0.5 L 237.94204873947666 3.5 L 244.94204873947666 0 L 237.94204873947666 -3.5 L 237.94204873947666 -0.5 L 174.71711811973833 -0.5 Z"/><text text-anchor="middle" pointer-events="none" font-size="8px" fill="#000000" x="131.47102436973833" y="3" font-family="sans-serif">is_in_relationship_with</text></g><g class="relationship" transform="translate(230.07984680835543 86.79185370743873) rotate(183.9543287811531)"><path class="outline" fill="#A5ABB6" stroke="none" d="M 25 0.5 L 34.53261867640816 0.5 L 34.53261867640816 -0.5 L 25 -0.5 Z M 121.02480617640816 0.5 L 130.55742485281633 0.5 L 130.55742485281633 3.5 L 137.55742485281633 0 L 130.55742485281633 -3.5 L 130.55742485281633 -0.5 L 121.02480617640816 -0.5 Z"/><text text-anchor="middle" pointer-events="none" font-size="8px" fill="#000000" x="77.77871242640816" y="3" transform="rotate(180 77.77871242640816 0)" font-family="sans-serif">is_in_relationship_with</text></g><g class="relationship" transform="translate(302.16665549175525 191.7340314713424) rotate(206.37370749181952)"><path class="outline" fill="#A5ABB6" stroke="none" d="M 25 0.5 L 83.99011157711413 0.5 L 83.99011157711413 -0.5 L 25 -0.5 Z M 170.48229907711413 0.5 L 229.47241065422827 0.5 L 229.47241065422827 3.5 L 236.47241065422827 0 L 229.47241065422827 -3.5 L 229.47241065422827 -0.5 L 170.48229907711413 -0.5 Z"/><text text-anchor="middle" pointer-events="none" font-size="8px" fill="#000000" x="127.23620532711413" y="3" transform="rotate(180 127.23620532711413 0)" font-family="sans-serif">is_in_relationship_with</text></g><g class="relationship" transform="translate(288.7551471361303 98.62004891302037) rotate(185.95548639229196)"><path class="outline" fill="#A5ABB6" stroke="none" d="M 25 0.5 L 64.27597948137516 0.5 L 64.27597948137516 -0.5 L 25 -0.5 Z M 150.76816698137515 0.5 L 190.04414646275032 0.5 L 190.04414646275032 3.5 L 197.04414646275032 0 L 190.04414646275032 -3.5 L 190.04414646275032 -0.5 L 150.76816698137515 -0.5 Z"/><text text-anchor="middle" pointer-events="none" font-size="8px" fill="#000000" x="107.52207323137516" y="3" transform="rotate(180 107.52207323137516 0)" font-family="sans-serif">is_in_relationship_with</text></g><g class="relationship" transform="translate(269.6568753250587 41.737836916768636) rotate(530.4770987854764)"><path class="outline" fill="#A5ABB6" stroke="none" d="M 24.018736134675446,-6.953439040707552 L 24.277555179777966,-5.987513214418485 A 297.62280401043006 297.62280401043006 0 0 1 55.76262400921811,-12.62320179321705 L 55.609593460175645,-13.61142325172716 A 298.62280401043006 298.62280401043006 0 0 0 24.018736134675446,-6.953439040707552 Z M 141.94014105795262,-14.35154269121034 L 141.80407597719596,-13.360842790231914 A 297.62280401043006 297.62280401043006 0 0 1 173.3982853084979,-7.265938456343291 L 172.67162445567413,-4.355274613682402 L 180.31094441684394,-6.055507106864671 L 174.36716644559624,-11.146823579891143 L 173.64050559277248,-8.236159737230254 A 298.62280401043006 298.62280401043006 0 0 0 141.94014105795262,-14.35154269121034"/><text text-anchor="middle" pointer-events="none" font-size="8px" fill="#000000" x="98.75226580011517" y="-13.617809250014886" transform="rotate(180 98.75226580011517 -16.617809250014886)" font-family="sans-serif">is_in_relationship_with</text></g><g class="relationship" transform="translate(269.6568753250587 41.737836916768636) rotate(530.4770987854764)"><path class="outline" fill="#A5ABB6" stroke="none" d="M 24.018736134675446,6.953439040707552 L 24.277555179777966,5.987513214418485 A 297.62280401043006 297.62280401043006 0 0 0 55.76262400921812,12.62320179321705 L 55.60959346017566,13.61142325172716 A 298.62280401043006 298.62280401043006 0 0 1 24.018736134675446,6.953439040707552 Z M 141.9401410579526,14.35154269121034 L 141.80407597719594,13.360842790231914 A 297.62280401043006 297.62280401043006 0 0 0 173.3982853084979,7.265938456343291 L 172.67162445567413,4.355274613682402 L 180.31094441684394,6.055507106864671 L 174.36716644559624,11.146823579891143 L 173.64050559277248,8.236159737230254 A 298.62280401043006 298.62280401043006 0 0 1 141.9401410579526,14.35154269121034"/><text text-anchor="middle" pointer-events="none" font-size="8px" fill="#000000" x="98.75226580011517" y="19.617809250014886" transform="rotate(180 98.75226580011517 16.617809250014886)" font-family="sans-serif">is_in_relationship_with</text></g><g class="relationship" transform="translate(332.25278158173614 139.83280951923518) rotate(193.6613584576305)"><path class="outline" fill="#A5ABB6" stroke="none" d="M 25 0.5 L 89.27377764211741 0.5 L 89.27377764211741 -0.5 L 25 -0.5 Z M 175.7659651421174 0.5 L 240.03974278423482 0.5 L 240.03974278423482 3.5 L 247.03974278423482 0 L 240.03974278423482 -3.5 L 240.03974278423482 -0.5 L 175.7659651421174 -0.5 Z"/><text text-anchor="middle" pointer-events="none" font-size="8px" fill="#000000" x="132.5198713921174" y="3" transform="rotate(180 132.5198713921174 0)" font-family="sans-serif">is_in_relationship_with</text></g><g class="relationship" transform="translate(258.66401730068696 150.4458870578935) rotate(201.4281907708763)"><path class="outline" fill="#A5ABB6" stroke="none" d="M 25 0.5 L 55.71361349626383 0.5 L 55.71361349626383 -0.5 L 25 -0.5 Z M 142.20580099626383 0.5 L 172.91941449252766 0.5 L 172.91941449252766 3.5 L 179.91941449252766 0 L 172.91941449252766 -3.5 L 172.91941449252766 -0.5 L 142.20580099626383 -0.5 Z"/><text text-anchor="middle" pointer-events="none" font-size="8px" fill="#000000" x="98.95970724626383" y="3" transform="rotate(180 98.95970724626383 0)" font-family="sans-serif">is_in_relationship_with</text></g><g class="relationship" transform="translate(13.744834352487425 313.37578397165777) rotate(282.83186396205605)"><path class="outline" fill="#A5ABB6" stroke="none" d="M 25 0.5 L 75.19634674806446 0.5 L 75.19634674806446 -0.5 L 25 -0.5 Z M 161.68853424806446 0.5 L 211.8848809961289 0.5 L 211.8848809961289 3.5 L 218.8848809961289 0 L 211.8848809961289 -3.5 L 211.8848809961289 -0.5 L 161.68853424806446 -0.5 Z"/><text text-anchor="middle" pointer-events="none" font-size="8px" fill="#000000" x="118.44244049806446" y="3" font-family="sans-serif">is_in_relationship_with</text></g><g class="relationship" transform="translate(210.408625877003 -15.692422592000208) rotate(507.359478876435)"><path class="outline" fill="#A5ABB6" stroke="none" d="M 21.40063509461097,-12.933012701892217 L 21.90063509461097,-12.06698729810778 A 123.06558334305261 123.06558334305261 0 0 1 38.93679981988983,-20.228718893495014 L 38.57523141272427,-21.161064476924125 A 124.06558334305261 124.06558334305261 0 0 0 21.40063509461097,-12.933012701892217 Z M 123.63839971247137,-22.859543854044205 L 123.31433745553454,-21.913508096987954 A 123.06558334305261 123.06558334305261 0 0 1 140.66272835745974,-14.438342259631844 L 139.26763559382837,-11.782458945014398 L 147.09230488550568,-11.625773030261525 L 142.5228520423016,-17.979520012455104 L 141.12775927867023,-15.323636697837658 A 124.06558334305261 124.06558334305261 0 0 0 123.63839971247137,-22.859543854044205"/><text text-anchor="middle" pointer-events="none" font-size="8px" fill="#000000" x="80.96665090678864" y="-26.03002419705058" transform="rotate(180 80.96665090678864 -29.03002419705058)" font-family="sans-serif">is_in_relationship_with</text></g><g class="relationship" transform="translate(210.408625877003 -15.692422592000208) rotate(507.359478876435)"><path class="outline" fill="#A5ABB6" stroke="none" d="M 25 0.5 L 37.86623917032554 0.5 L 37.86623917032554 -0.5 L 25 -0.5 Z M 124.35842667032554 0.5 L 137.22466584065108 0.5 L 137.22466584065108 3.5 L 144.22466584065108 0 L 137.22466584065108 -3.5 L 137.22466584065108 -0.5 L 124.35842667032554 -0.5 Z"/><text text-anchor="middle" pointer-events="none" font-size="8px" fill="#000000" x="81.11233292032554" y="3" transform="rotate(180 81.11233292032554 0)" font-family="sans-serif">is_in_relationship_with</text></g><g class="relationship" transform="translate(210.408625877003 -15.692422592000208) rotate(507.359478876435)"><path class="outline" fill="#A5ABB6" stroke="none" d="M 21.40063509461097,12.933012701892217 L 21.90063509461097,12.06698729810778 A 123.06558334305261 123.06558334305261 0 0 0 38.936799819889885,20.228718893495042 L 38.57523141272433,21.161064476924153 A 124.06558334305261 124.06558334305261 0 0 1 21.40063509461097,12.933012701892217 Z M 123.63839971247137,22.859543854044205 L 123.31433745553454,21.913508096987954 A 123.06558334305261 123.06558334305261 0 0 0 140.66272835745974,14.438342259631844 L 139.26763559382837,11.782458945014398 L 147.09230488550568,11.625773030261525 L 142.5228520423016,17.979520012455104 L 141.12775927867023,15.323636697837658 A 124.06558334305261 124.06558334305261 0 0 1 123.63839971247137,22.859543854044205"/><text text-anchor="middle" pointer-events="none" font-size="8px" fill="#000000" x="80.96665090678867" y="32.03002419705058" transform="rotate(180 80.96665090678867 29.03002419705058)" font-family="sans-serif">is_in_relationship_with</text></g><g class="relationship" transform="translate(-22.189917091551155 265.29201686141755) rotate(295.4044963693342)"><path class="outline" fill="#A5ABB6" stroke="none" d="M 25 0.5 L 58.263310220369206 0.5 L 58.263310220369206 -0.5 L 25 -0.5 Z M 144.7554977203692 0.5 L 178.0188079407384 0.5 L 178.0188079407384 3.5 L 185.0188079407384 0 L 178.0188079407384 -3.5 L 178.0188079407384 -0.5 L 144.7554977203692 -0.5 Z"/><text text-anchor="middle" pointer-events="none" font-size="8px" fill="#000000" x="101.5094039703692" y="3" font-family="sans-serif">is_in_relationship_with</text></g><g class="relationship" transform="translate(-66.92289897174867 224.4591855616181) rotate(312.165859919056)"><path class="outline" fill="#A5ABB6" stroke="none" d="M 25 0.5 L 53.68331337938494 0.5 L 53.68331337938494 -0.5 L 25 -0.5 Z M 140.17550087938494 0.5 L 168.85881425876988 0.5 L 168.85881425876988 3.5 L 175.85881425876988 0 L 168.85881425876988 -3.5 L 168.85881425876988 -0.5 L 140.17550087938494 -0.5 Z"/><text text-anchor="middle" pointer-events="none" font-size="8px" fill="#000000" x="96.92940712938494" y="3" font-family="sans-serif">is_in_relationship_with</text></g><g class="relationship" transform="translate(-138.90149754107202 81.67283016567787) rotate(358.31297096766434)"><path class="outline" fill="#A5ABB6" stroke="none" d="M 25 0.5 L 56.704203687240565 0.5 L 56.704203687240565 -0.5 L 25 -0.5 Z M 143.19639118724058 0.5 L 174.90059487448113 0.5 L 174.90059487448113 3.5 L 181.90059487448113 0 L 174.90059487448113 -3.5 L 174.90059487448113 -0.5 L 143.19639118724058 -0.5 Z"/><text text-anchor="middle" pointer-events="none" font-size="8px" fill="#000000" x="99.95029743724056" y="3" font-family="sans-serif">is_in_relationship_with</text></g><g class="relationship" transform="translate(-102.9930659630043 129.7102105655834) rotate(342.4258753898216)"><path class="outline" fill="#A5ABB6" stroke="none" d="M 25 0.5 L 42.88865912067858 0.5 L 42.88865912067858 -0.5 L 25 -0.5 Z M 129.3808466206786 0.5 L 147.26950574135716 0.5 L 147.26950574135716 3.5 L 154.26950574135716 0 L 147.26950574135716 -3.5 L 147.26950574135716 -0.5 L 129.3808466206786 -0.5 Z"/><text text-anchor="middle" pointer-events="none" font-size="8px" fill="#000000" x="86.13475287067858" y="3" font-family="sans-serif">is_in_relationship_with</text></g><g class="relationship" transform="translate(180.21965182625934 227.0698387025641) rotate(233.44751432327593)"><path class="outline" fill="#A5ABB6" stroke="none" d="M 25 0.5 L 47.543685022554826 0.5 L 47.543685022554826 -0.5 L 25 -0.5 Z M 134.03587252255483 0.5 L 156.57955754510965 0.5 L 156.57955754510965 3.5 L 163.57955754510965 0 L 156.57955754510965 -3.5 L 156.57955754510965 -0.5 L 134.03587252255483 -0.5 Z"/><text text-anchor="middle" pointer-events="none" font-size="8px" fill="#000000" x="90.78977877255483" y="3" transform="rotate(180 90.78977877255483 0)" font-family="sans-serif">is_in_relationship_with</text></g><g class="relationship" transform="translate(197.16632548414108 163.83011570363968) rotate(214.32278602753155)"><path class="outline" fill="#A5ABB6" stroke="none" d="M 25 0.5 L 31.508513097198616 0.5 L 31.508513097198616 -0.5 L 25 -0.5 Z M 118.00070059719862 0.5 L 124.50921369439723 0.5 L 124.50921369439723 3.5 L 131.50921369439723 0 L 124.50921369439723 -3.5 L 124.50921369439723 -0.5 L 118.00070059719862 -0.5 Z"/><text text-anchor="middle" pointer-events="none" font-size="8px" fill="#000000" x="74.75460684719862" y="3" transform="rotate(180 74.75460684719862 0)" font-family="sans-serif">is_in_relationship_with</text></g><g class="relationship" transform="translate(224.42761581561317 267.6110912940007) rotate(230.81741411032453)"><path class="outline" fill="#A5ABB6" stroke="none" d="M 25 0.5 L 77.12202100844242 0.5 L 77.12202100844242 -0.5 L 25 -0.5 Z M 163.6142085084424 0.5 L 215.73622951688483 0.5 L 215.73622951688483 3.5 L 222.73622951688483 0 L 215.73622951688483 -3.5 L 215.73622951688483 -0.5 L 163.6142085084424 -0.5 Z"/><text text-anchor="middle" pointer-events="none" font-size="8px" fill="#000000" x="120.36811475844242" y="3" transform="rotate(180 120.36811475844242 0)" font-family="sans-serif">is_in_relationship_with</text></g><g class="relationship" transform="translate(138.90187284599386 -111.38833228073318) rotate(470.791753765278)"><path class="outline" fill="#A5ABB6" stroke="none" d="M 25 0.5 L 53.251051774299086 0.5 L 53.251051774299086 -0.5 L 25 -0.5 Z M 139.74323927429907 0.5 L 167.99429104859817 0.5 L 167.99429104859817 3.5 L 174.99429104859817 0 L 167.99429104859817 -3.5 L 167.99429104859817 -0.5 L 139.74323927429907 -0.5 Z"/><text text-anchor="middle" pointer-events="none" font-size="8px" fill="#000000" x="96.49714552429909" y="3" transform="rotate(180 96.49714552429909 0)" font-family="sans-serif">is_in_relationship_with</text></g><g class="relationship" transform="translate(-137.92032805630137 243.81608342041451) rotate(320.7392441373563)"><path class="outline" fill="#A5ABB6" stroke="none" d="M 25 0.5 L 86.17182858670154 0.5 L 86.17182858670154 -0.5 L 25 -0.5 Z M 172.66401608670154 0.5 L 233.83584467340307 0.5 L 233.83584467340307 3.5 L 240.83584467340307 0 L 233.83584467340307 -3.5 L 233.83584467340307 -0.5 L 172.66401608670154 -0.5 Z"/><text text-anchor="middle" pointer-events="none" font-size="8px" fill="#000000" x="129.41792233670154" y="3" font-family="sans-serif">is_in_relationship_with</text></g><g class="relationship" transform="translate(338.2224427100372 64.78605853520524) rotate(537.7129651155099)"><path class="outline" fill="#A5ABB6" stroke="none" d="M 25 0.5 L 88.51816406292753 0.5 L 88.51816406292753 -0.5 L 25 -0.5 Z M 175.01035156292753 0.5 L 238.52851562585505 0.5 L 238.52851562585505 3.5 L 245.52851562585505 0 L 238.52851562585505 -3.5 L 238.52851562585505 -0.5 L 175.01035156292753 -0.5 Z"/><text text-anchor="middle" pointer-events="none" font-size="8px" fill="#000000" x="131.76425781292753" y="3" transform="rotate(180 131.76425781292753 0)" font-family="sans-serif">is_in_relationship_with</text></g><g class="relationship" transform="translate(174.1956278044476 108.39221980848022) rotate(197.15544764112093)"><path class="outline" fill="#A5ABB6" stroke="none" d="M 25 0.5 L 25.996551596558426 0.5 L 25.996551596558426 -0.5 L 25 -0.5 Z M 78.23873909655842 0.5 L 79.23529069311685 0.5 L 79.23529069311685 3.5 L 86.23529069311685 0 L 79.23529069311685 -3.5 L 79.23529069311685 -0.5 L 78.23873909655842 -0.5 Z"/><text text-anchor="middle" pointer-events="none" font-size="8px" fill="#000000" x="52.117645346558426" y="3" transform="rotate(180 52.117645346558426 0)" font-family="sans-serif">is_in_relati…</text></g><g class="relationship" transform="translate(270.24565748667345 -18.168086239039695) rotate(515.1399874531319)"><path class="outline" fill="#A5ABB6" stroke="none" d="M 25 0.5 L 64.75387730409449 0.5 L 64.75387730409449 -0.5 L 25 -0.5 Z M 151.2460648040945 0.5 L 190.99994210818897 0.5 L 190.99994210818897 3.5 L 197.99994210818897 0 L 190.99994210818897 -3.5 L 190.99994210818897 -0.5 L 151.2460648040945 -0.5 Z"/><text text-anchor="middle" pointer-events="none" font-size="8px" fill="#000000" x="107.99997105409449" y="3" transform="rotate(180 107.99997105409449 0)" font-family="sans-serif">is_in_relationship_with</text></g><g class="relationship" transform="translate(40.83713316034054 -44.36359726733447) rotate(437.28116010936935)"><path class="outline" fill="#A5ABB6" stroke="none" d="M 25 0.5 L 25.41094357631207 0.5 L 25.41094357631207 -0.5 L 25 -0.5 Z M 90.55156857631206 0.5 L 90.96251215262414 0.5 L 90.96251215262414 3.5 L 97.96251215262414 0 L 90.96251215262414 -3.5 L 90.96251215262414 -0.5 L 90.55156857631206 -0.5 Z"/><text text-anchor="middle" pointer-events="none" font-size="8px" fill="#000000" x="57.98125607631207" y="3" font-family="sans-serif">is_in_relations…</text></g><g class="relationship" transform="translate(178.24316507946978 -66.38281366346148) rotate(487.85408465944624)"><path class="outline" fill="#A5ABB6" stroke="none" d="M 24.018736134675446,-6.953439040707552 L 24.277555179777966,-5.987513214418485 A 249.2554416495869 249.2554416495869 0 0 1 43.463187193905256,-10.32479707756113 L 43.28133991674952,-11.30812386342177 A 250.2554416495869 250.2554416495869 0 0 0 24.018736134675446,-6.953439040707552 Z M 129.51019400647485,-12.145515639126415 L 129.34747793059682,-11.158842705145332 A 249.2554416495869 249.2554416495869 0 0 1 148.61372467329377,-7.194975459575429 L 147.8936908753966,-4.282665151609297 L 155.52912102486428,-6.0002816491430595 L 149.57376973715668,-11.078055870196938 L 148.8537359392595,-8.165745562230805 A 250.2554416495869 250.2554416495869 0 0 0 129.51019400647485,-12.145515639126415"/><text text-anchor="middle" pointer-events="none" font-size="8px" fill="#000000" x="86.36428214246317" y="-11.968910198314518" transform="rotate(180 86.36428214246317 -14.968910198314518)" font-family="sans-serif">is_in_relationship_with</text></g><g class="relationship" transform="translate(178.24316507946978 -66.38281366346148) rotate(487.85408465944624)"><path class="outline" fill="#A5ABB6" stroke="none" d="M 24.018736134675446,6.953439040707552 L 24.277555179777966,5.987513214418485 A 249.2554416495869 249.2554416495869 0 0 0 43.463187193905185,10.3247970775611 L 43.28133991674945,11.308123863421741 A 250.2554416495869 250.2554416495869 0 0 1 24.018736134675446,6.953439040707552 Z M 129.51019400647488,12.145515639126415 L 129.34747793059685,11.158842705145332 A 249.2554416495869 249.2554416495869 0 0 0 148.61372467329377,7.194975459575429 L 147.8936908753966,4.282665151609297 L 155.52912102486428,6.0002816491430595 L 149.57376973715668,11.078055870196938 L 148.8537359392595,8.165745562230805 A 250.2554416495869 250.2554416495869 0 0 1 129.51019400647488,12.145515639126415"/><text text-anchor="middle" pointer-events="none" font-size="8px" fill="#000000" x="86.36428214246315" y="17.968910198314518" transform="rotate(180 86.36428214246315 14.968910198314518)" font-family="sans-serif">is_in_relationship_with</text></g><g class="relationship" transform="translate(-60.51987015691756 87.34376339373156) rotate(354.76721650981665)"><path class="outline" fill="#A5ABB6" stroke="none" d="M 25 0.5 L 25.299791930090947 0.5 L 25.299791930090947 -0.5 L 25 -0.5 Z M 96.66697943009095 0.5 L 96.9667713601819 0.5 L 96.9667713601819 3.5 L 103.9667713601819 0 L 96.9667713601819 -3.5 L 96.9667713601819 -0.5 L 96.66697943009095 -0.5 Z"/><text text-anchor="middle" pointer-events="none" font-size="8px" fill="#000000" x="60.98338568009095" y="3" font-family="sans-serif">is_in_relationshi…</text></g><g class="relationship" transform="translate(62.217734284021674 348.63645248399564) rotate(271.19412727276153)"><path class="outline" fill="#A5ABB6" stroke="none" d="M 25 0.5 L 89.81094650861883 0.5 L 89.81094650861883 -0.5 L 25 -0.5 Z M 176.30313400861883 0.5 L 241.11408051723765 0.5 L 241.11408051723765 3.5 L 248.11408051723765 0 L 241.11408051723765 -3.5 L 241.11408051723765 -0.5 L 176.30313400861883 -0.5 Z"/><text text-anchor="middle" pointer-events="none" font-size="8px" fill="#000000" x="133.05704025861883" y="3" font-family="sans-serif">is_in_relationship_with</text></g><g class="relationship" transform="translate(237.234805069493 208.39937737442116) rotate(218.1103977921922)"><path class="outline" fill="#A5ABB6" stroke="none" d="M 25 0.5 L 60.85458760199893 0.5 L 60.85458760199893 -0.5 L 25 -0.5 Z M 147.34677510199893 0.5 L 183.20136270399786 0.5 L 183.20136270399786 3.5 L 190.20136270399786 0 L 183.20136270399786 -3.5 L 183.20136270399786 -0.5 L 147.34677510199893 -0.5 Z"/><text text-anchor="middle" pointer-events="none" font-size="8px" fill="#000000" x="104.10068135199893" y="3" transform="rotate(180 104.10068135199893 0)" font-family="sans-serif">is_in_relationship_with</text></g><g class="relationship" transform="translate(133.32413624295623 185.60345753568146) rotate(239.2659093369798)"><path class="outline" fill="#A5ABB6" stroke="none" d="M 25 0.5 L 25.704835702792494 0.5 L 25.704835702792494 -0.5 L 25 -0.5 Z M 95.2946794527925 0.5 L 95.99951515558499 0.5 L 95.99951515558499 3.5 L 102.99951515558499 0 L 95.99951515558499 -3.5 L 95.99951515558499 -0.5 L 95.2946794527925 -0.5 Z"/><text text-anchor="middle" pointer-events="none" font-size="8px" fill="#000000" x="60.499757577792494" y="3" transform="rotate(180 60.499757577792494 0)" font-family="sans-serif">is_in_relationsh…</text></g><g class="relationship" transform="translate(85.02356128228536 -199.93691380623733) rotate(453.5544244246396)"><path class="outline" fill="#A5ABB6" stroke="none" d="M 25 0.5 L 91.27871612195767 0.5 L 91.27871612195767 -0.5 L 25 -0.5 Z M 177.77090362195767 0.5 L 244.04961974391534 0.5 L 244.04961974391534 3.5 L 251.04961974391534 0 L 244.04961974391534 -3.5 L 244.04961974391534 -0.5 L 177.77090362195767 -0.5 Z"/><text text-anchor="middle" pointer-events="none" font-size="8px" fill="#000000" x="134.52480987195767" y="3" transform="rotate(180 134.52480987195767 0)" font-family="sans-serif">is_in_relationship_with</text></g><g class="relationship" transform="translate(86.25192772081273 -140.15101578707146) rotate(454.8598424268047)"><path class="outline" fill="#A5ABB6" stroke="none" d="M 25 0.5 L 61.50944439849529 0.5 L 61.50944439849529 -0.5 L 25 -0.5 Z M 148.0016318984953 0.5 L 184.51107629699058 0.5 L 184.51107629699058 3.5 L 191.51107629699058 0 L 184.51107629699058 -3.5 L 184.51107629699058 -0.5 L 148.0016318984953 -0.5 Z"/><text text-anchor="middle" pointer-events="none" font-size="8px" fill="#000000" x="104.75553814849529" y="3" transform="rotate(180 104.75553814849529 0)" font-family="sans-serif">is_in_relationship_with</text></g><g class="relationship" transform="translate(191.16953233312805 41.02655794129731) rotate(524.3395241493088)"><path class="outline" fill="#A5ABB6" stroke="none" d="M 25 0.5 L 25.711157973894302 0.5 L 25.711157973894302 -0.5 L 25 -0.5 Z M 95.3010017238943 0.5 L 96.0121596977886 0.5 L 96.0121596977886 3.5 L 103.0121596977886 0 L 96.0121596977886 -3.5 L 96.0121596977886 -0.5 L 95.3010017238943 -0.5 Z"/><text text-anchor="middle" pointer-events="none" font-size="8px" fill="#000000" x="60.5060798488943" y="3" transform="rotate(180 60.5060798488943 0)" font-family="sans-serif">is_in_relationsh…</text></g><g class="relationship" transform="translate(-102.38048355310507 34.088274761065435) rotate(373.69403171958095)"><path class="outline" fill="#A5ABB6" stroke="none" d="M 25 0.5 L 40.89001918340503 0.5 L 40.89001918340503 -0.5 L 25 -0.5 Z M 127.38220668340503 0.5 L 143.27222586681006 0.5 L 143.27222586681006 3.5 L 150.27222586681006 0 L 143.27222586681006 -3.5 L 143.27222586681006 -0.5 L 127.38220668340503 -0.5 Z"/><text text-anchor="middle" pointer-events="none" font-size="8px" fill="#000000" x="84.13611293340503" y="3" font-family="sans-serif">is_in_relationship_with</text></g><g class="relationship" transform="translate(-174.81706041874966 189.14856186874513) rotate(334.92604401323104)"><path class="outline" fill="#A5ABB6" stroke="none" d="M 25 0.5 L 87.24418381742345 0.5 L 87.24418381742345 -0.5 L 25 -0.5 Z M 173.73637131742345 0.5 L 235.9805551348469 0.5 L 235.9805551348469 3.5 L 242.9805551348469 0 L 235.9805551348469 -3.5 L 235.9805551348469 -0.5 L 173.73637131742345 -0.5 Z"/><text text-anchor="middle" pointer-events="none" font-size="8px" fill="#000000" x="130.49027756742345" y="3" font-family="sans-serif">is_in_relationship_with</text></g><g class="relationship" transform="translate(-135.03498614521524 -92.68147752402291) rotate(399.6624549804551)"><path class="outline" fill="#A5ABB6" stroke="none" d="M 25 0.5 L 85.06714778185966 0.5 L 85.06714778185966 -0.5 L 25 -0.5 Z M 171.55933528185966 0.5 L 231.62648306371932 0.5 L 231.62648306371932 3.5 L 238.62648306371932 0 L 231.62648306371932 -3.5 L 231.62648306371932 -0.5 L 171.55933528185966 -0.5 Z"/><text text-anchor="middle" pointer-events="none" font-size="8px" fill="#000000" x="128.31324153185966" y="3" font-family="sans-serif">is_in_relationship_with</text></g><g class="relationship" transform="translate(298.10809769115184 -71.22756054210346) rotate(507.4722991881473)"><path class="outline" fill="#A5ABB6" stroke="none" d="M 25 0.5 L 89.76799675236273 0.5 L 89.76799675236273 -0.5 L 25 -0.5 Z M 176.26018425236273 0.5 L 241.02818100472547 0.5 L 241.02818100472547 3.5 L 248.02818100472547 0 L 241.02818100472547 -3.5 L 241.02818100472547 -0.5 L 176.26018425236273 -0.5 Z"/><text text-anchor="middle" pointer-events="none" font-size="8px" fill="#000000" x="133.01409050236273" y="3" transform="rotate(180 133.01409050236273 0)" font-family="sans-serif">is_in_relationship_with</text></g><g class="relationship" transform="translate(38.193576132944926 -104.3043437891204) rotate(440.6198727393714)"><path class="outline" fill="#A5ABB6" stroke="none" d="M 25 0.5 L 44.41587025091714 0.5 L 44.41587025091714 -0.5 L 25 -0.5 Z M 130.90805775091712 0.5 L 150.32392800183428 0.5 L 150.32392800183428 3.5 L 157.32392800183428 0 L 150.32392800183428 -3.5 L 150.32392800183428 -0.5 L 130.90805775091712 -0.5 Z"/><text text-anchor="middle" pointer-events="none" font-size="8px" fill="#000000" x="87.66196400091714" y="3" font-family="sans-serif">is_in_relationship_with</text></g><g class="relationship" transform="translate(238.13924344087775 -68.9023596229945) rotate(499.6767785747778)"><path class="outline" fill="#A5ABB6" stroke="none" d="M 25 0.5 L 64.89376622155204 0.5 L 64.89376622155204 -0.5 L 25 -0.5 Z M 151.38595372155203 0.5 L 191.27971994310408 0.5 L 191.27971994310408 3.5 L 198.27971994310408 0 L 191.27971994310408 -3.5 L 191.27971994310408 -0.5 L 151.38595372155203 -0.5 Z"/><text text-anchor="middle" pointer-events="none" font-size="8px" fill="#000000" x="108.13985997155204" y="3" transform="rotate(180 108.13985997155204 0)" font-family="sans-serif">is_in_relationship_with</text></g><g class="relationship" transform="translate(94.73810098610943 -70.73590938659945) rotate(460.39029448773795)"><path class="outline" fill="#A5ABB6" stroke="none" d="M 25 0.5 L 27.63235896488858 0.5 L 27.63235896488858 -0.5 L 25 -0.5 Z M 114.12454646488858 0.5 L 116.75690542977716 0.5 L 116.75690542977716 3.5 L 123.75690542977716 0 L 116.75690542977716 -3.5 L 116.75690542977716 -0.5 L 114.12454646488858 -0.5 Z"/><text text-anchor="middle" pointer-events="none" font-size="8px" fill="#000000" x="70.87845271488858" y="3" transform="rotate(180 70.87845271488858 0)" font-family="sans-serif">is_in_relationship_with</text></g><g class="relationship" transform="translate(48.615894409349444 196.51898096603853) rotate(279.0642007580782)"><path class="outline" fill="#A5ABB6" stroke="none" d="M 25 0.5 L 25.162990135345403 0.5 L 25.162990135345403 -0.5 L 25 -0.5 Z M 90.30361513534541 0.5 L 90.4666052706908 0.5 L 90.4666052706908 3.5 L 97.4666052706908 0 L 90.4666052706908 -3.5 L 90.4666052706908 -0.5 L 90.30361513534541 -0.5 Z"/><text text-anchor="middle" pointer-events="none" font-size="8px" fill="#000000" x="57.7333026353454" y="3" font-family="sans-serif">is_in_relations…</text></g><g class="relationship" transform="translate(-19.598566373505285 -53.19072228239428) rotate(415.8017213003436)"><path class="outline" fill="#A5ABB6" stroke="none" d="M 25 0.5 L 31.099876073502486 0.5 L 31.099876073502486 -0.5 L 25 -0.5 Z M 117.59206357350249 0.5 L 123.69193964700497 0.5 L 123.69193964700497 3.5 L 130.69193964700497 0 L 123.69193964700497 -3.5 L 123.69193964700497 -0.5 L 117.59206357350249 -0.5 Z"/><text text-anchor="middle" pointer-events="none" font-size="8px" fill="#000000" x="74.34596982350249" y="3" font-family="sans-serif">is_in_relationship_with</text></g><g class="relationship" transform="translate(-26.85933408169213 -172.8186583159258) rotate(429.11733780087957)"><path class="outline" fill="#A5ABB6" stroke="none" d="M 25 0.5 L 86.18607589798995 0.5 L 86.18607589798995 -0.5 L 25 -0.5 Z M 172.67826339798995 0.5 L 233.8643392959799 0.5 L 233.8643392959799 3.5 L 240.8643392959799 0 L 233.8643392959799 -3.5 L 233.8643392959799 -0.5 L 172.67826339798995 -0.5 Z"/><text text-anchor="middle" pointer-events="none" font-size="8px" fill="#000000" x="129.43216964798995" y="3" font-family="sans-serif">is_in_relationship_with</text></g><g class="relationship" transform="translate(85.81046069866072 293.5776285635086) rotate(265.3056089393865)"><path class="outline" fill="#A5ABB6" stroke="none" d="M 25 0.5 L 62.61875268969179 0.5 L 62.61875268969179 -0.5 L 25 -0.5 Z M 149.1109401896918 0.5 L 186.72969287938358 0.5 L 186.72969287938358 3.5 L 193.72969287938358 0 L 186.72969287938358 -3.5 L 186.72969287938358 -0.5 L 149.1109401896918 -0.5 Z"/><text text-anchor="middle" pointer-events="none" font-size="8px" fill="#000000" x="105.86484643969179" y="3" transform="rotate(180 105.86484643969179 0)" font-family="sans-serif">is_in_relationship_with</text></g><g class="relationship" transform="translate(194.68087155948842 -133.09300731261135) rotate(481.27899741797063)"><path class="outline" fill="#A5ABB6" stroke="none" d="M 25 0.5 L 75.33597833678938 0.5 L 75.33597833678938 -0.5 L 25 -0.5 Z M 161.82816583678937 0.5 L 212.16414417357876 0.5 L 212.16414417357876 3.5 L 219.16414417357876 0 L 212.16414417357876 -3.5 L 212.16414417357876 -0.5 L 161.82816583678937 -0.5 Z"/><text text-anchor="middle" pointer-events="none" font-size="8px" fill="#000000" x="118.58207208678938" y="3" transform="rotate(180 118.58207208678938 0)" font-family="sans-serif">is_in_relationship_with</text></g><g class="relationship" transform="translate(-11.056257096807762 202.57380372912107) rotate(301.87399129724565)"><path class="outline" fill="#A5ABB6" stroke="none" d="M 25 0.5 L 28.024514882246365 0.5 L 28.024514882246365 -0.5 L 25 -0.5 Z M 114.51670238224636 0.5 L 117.54121726449273 0.5 L 117.54121726449273 3.5 L 124.54121726449273 0 L 117.54121726449273 -3.5 L 117.54121726449273 -0.5 L 114.51670238224636 -0.5 Z"/><text text-anchor="middle" pointer-events="none" font-size="8px" fill="#000000" x="71.27060863224636" y="3" font-family="sans-serif">is_in_relationship_with</text></g><g class="relationship" transform="translate(-71.41013109576241 -22.946320703912594) rotate(395.26828531042577)"><path class="outline" fill="#A5ABB6" stroke="none" d="M 25 0.5 L 38.57345900645049 0.5 L 38.57345900645049 -0.5 L 25 -0.5 Z M 125.06564650645049 0.5 L 138.63910551290098 0.5 L 138.63910551290098 3.5 L 145.63910551290098 0 L 138.63910551290098 -3.5 L 138.63910551290098 -0.5 L 125.06564650645049 -0.5 Z"/><text text-anchor="middle" pointer-events="none" font-size="8px" fill="#000000" x="81.81955275645049" y="3" font-family="sans-serif">is_in_relationship_with</text></g><g class="relationship" transform="translate(32.820843864991566 -167.1739491591677) rotate(441.7752721801871)"><path class="outline" fill="#A5ABB6" stroke="none" d="M 25 0.5 L 75.89311910255908 0.5 L 75.89311910255908 -0.5 L 25 -0.5 Z M 162.38530660255907 0.5 L 213.27842570511817 0.5 L 213.27842570511817 3.5 L 220.27842570511817 0 L 213.27842570511817 -3.5 L 213.27842570511817 -0.5 L 162.38530660255907 -0.5 Z"/><text text-anchor="middle" pointer-events="none" font-size="8px" fill="#000000" x="119.13921285255908" y="3" font-family="sans-serif">is_in_relationship_with</text></g><g class="relationship" transform="translate(-78.91655197777476 -142.58665766652658) rotate(416.0596861045434)"><path class="outline" fill="#A5ABB6" stroke="none" d="M 25 0.5 L 84.74087421362063 0.5 L 84.74087421362063 -0.5 L 25 -0.5 Z M 171.23306171362063 0.5 L 230.97393592724126 0.5 L 230.97393592724126 3.5 L 237.97393592724126 0 L 230.97393592724126 -3.5 L 230.97393592724126 -0.5 L 171.23306171362063 -0.5 Z"/><text text-anchor="middle" pointer-events="none" font-size="8px" fill="#000000" x="127.98696796362063" y="3" font-family="sans-serif">is_in_relationship_with</text></g><g class="relationship" transform="translate(130.0508703455013 334.0208096462214) rotate(256.47993925268145)"><path class="outline" fill="#A5ABB6" stroke="none" d="M 25 0.5 L 86.15644681222673 0.5 L 86.15644681222673 -0.5 L 25 -0.5 Z M 172.64863431222673 0.5 L 233.80508112445347 0.5 L 233.80508112445347 3.5 L 240.80508112445347 0 L 233.80508112445347 -3.5 L 233.80508112445347 -0.5 L 172.64863431222673 -0.5 Z"/><text text-anchor="middle" pointer-events="none" font-size="8px" fill="#000000" x="129.40254056222673" y="3" transform="rotate(180 129.40254056222673 0)" font-family="sans-serif">is_in_relationship_with</text></g><g class="relationship" transform="translate(-161.8627896001421 26.265877771221167) rotate(372.11356798163547)"><path class="outline" fill="#A5ABB6" stroke="none" d="M 25 0.5 L 70.75636956509523 0.5 L 70.75636956509523 -0.5 L 25 -0.5 Z M 157.2485570650952 0.5 L 203.00492663019045 0.5 L 203.00492663019045 3.5 L 210.00492663019045 0 L 203.00492663019045 -3.5 L 203.00492663019045 -0.5 L 157.2485570650952 -0.5 Z"/><text text-anchor="middle" pointer-events="none" font-size="8px" fill="#000000" x="114.00246331509523" y="3" font-family="sans-serif">is_in_relationship_with</text></g><g class="relationship" transform="translate(254.20062158158203 -126.57598892341153) rotate(492.6610135403879)"><path class="outline" fill="#A5ABB6" stroke="none" d="M 25 0.5 L 90.70584193478774 0.5 L 90.70584193478774 -0.5 L 25 -0.5 Z M 177.19802943478774 0.5 L 242.90387136957548 0.5 L 242.90387136957548 3.5 L 249.90387136957548 0 L 242.90387136957548 -3.5 L 242.90387136957548 -0.5 L 177.19802943478774 -0.5 Z"/><text text-anchor="middle" pointer-events="none" font-size="8px" fill="#000000" x="133.95193568478774" y="3" transform="rotate(180 133.95193568478774 0)" font-family="sans-serif">is_in_relationship_with</text></g><g class="relationship" transform="translate(139.03812981497236 -20.92289318309387) rotate(486.39207631982333)"><path class="outline" fill="#A5ABB6" stroke="none" d="M 25 0.5 L 25.872217468633544 0.5 L 25.872217468633544 -0.5 L 25 -0.5 Z M 87.01284246863355 0.5 L 87.88505993726709 0.5 L 87.88505993726709 3.5 L 94.88505993726709 0 L 87.88505993726709 -3.5 L 87.88505993726709 -0.5 L 87.01284246863355 -0.5 Z"/><text text-anchor="middle" pointer-events="none" font-size="8px" fill="#000000" x="56.44252996863354" y="3" transform="rotate(180 56.44252996863354 0)" font-family="sans-serif">is_in_relation…</text></g><g class="relationship" transform="translate(-189.93994438536328 -26.648011875609015) rotate(381.6268715392588)"><path class="outline" fill="#A5ABB6" stroke="none" d="M 25 0.5 L 91.94168859591707 0.5 L 91.94168859591707 -0.5 L 25 -0.5 Z M 178.43387609591707 0.5 L 245.37556469183414 0.5 L 245.37556469183414 3.5 L 252.37556469183414 0 L 245.37556469183414 -3.5 L 245.37556469183414 -0.5 L 178.43387609591707 -0.5 Z"/><text text-anchor="middle" pointer-events="none" font-size="8px" fill="#000000" x="135.18778234591707" y="3" font-family="sans-serif">is_in_relationship_with</text></g><g class="relationship" transform="translate(148.60219448385715 -171.43739357150093) rotate(468.0904639913689)"><path class="outline" fill="#A5ABB6" stroke="none" d="M 25 0.5 L 83.18634051920753 0.5 L 83.18634051920753 -0.5 L 25 -0.5 Z M 169.67852801920753 0.5 L 227.86486853841507 0.5 L 227.86486853841507 3.5 L 234.86486853841507 0 L 227.86486853841507 -3.5 L 227.86486853841507 -0.5 L 169.67852801920753 -0.5 Z"/><text text-anchor="middle" pointer-events="none" font-size="8px" fill="#000000" x="126.43243426920753" y="3" transform="rotate(180 126.43243426920753 0)" font-family="sans-serif">is_in_relationship_with</text></g><g class="relationship" transform="translate(-75.93975956482059 -82.74955271665576) rotate(407.7438133435155)"><path class="outline" fill="#A5ABB6" stroke="none" d="M 25 0.5 L 60.21343883017447 0.5 L 60.21343883017447 -0.5 L 25 -0.5 Z M 146.70562633017448 0.5 L 181.91906516034894 0.5 L 181.91906516034894 3.5 L 188.91906516034894 0 L 181.91906516034894 -3.5 L 181.91906516034894 -0.5 L 146.70562633017448 -0.5 Z"/><text text-anchor="middle" pointer-events="none" font-size="8px" fill="#000000" x="103.45953258017447" y="3" font-family="sans-serif">is_in_relationship_with</text></g><g class="relationship" transform="translate(-49.176074814745775 156.28477157475044) rotate(325.42281236270253)"><path class="outline" fill="#A5ABB6" stroke="none" d="M 25 0.5 L 27.4692274465733 0.5 L 27.4692274465733 -0.5 L 25 -0.5 Z M 107.7348524465733 0.5 L 110.2040798931466 0.5 L 110.2040798931466 3.5 L 117.2040798931466 0 L 110.2040798931466 -3.5 L 110.2040798931466 -0.5 L 107.7348524465733 -0.5 Z"/><text text-anchor="middle" pointer-events="none" font-size="8px" fill="#000000" x="67.6020399465733" y="3" font-family="sans-serif">is_in_relationship_…</text></g><g class="relationship" transform="translate(37.377469377647685 258.205841610486) rotate(279.4911932975209)"><path class="outline" fill="#A5ABB6" stroke="none" d="M 25 0.5 L 45.83330751645698 0.5 L 45.83330751645698 -0.5 L 25 -0.5 Z M 132.32549501645698 0.5 L 153.15880253291397 0.5 L 153.15880253291397 3.5 L 160.15880253291397 0 L 153.15880253291397 -3.5 L 153.15880253291397 -0.5 L 132.32549501645698 -0.5 Z"/><text text-anchor="middle" pointer-events="none" font-size="8px" fill="#000000" x="89.07940126645698" y="3" font-family="sans-serif">is_in_relationship_with</text></g><g class="relationship" transform="translate(-175.3852369017818 129.22600264676646) rotate(347.5657427401345)"><path class="outline" fill="#A5ABB6" stroke="none" d="M 25 0.5 L 77.8231651682164 0.5 L 77.8231651682164 -0.5 L 25 -0.5 Z M 164.3153526682164 0.5 L 217.1385178364328 0.5 L 217.1385178364328 3.5 L 224.1385178364328 0 L 217.1385178364328 -3.5 L 217.1385178364328 -0.5 L 164.3153526682164 -0.5 Z"/><text text-anchor="middle" pointer-events="none" font-size="8px" fill="#000000" x="121.0692589182164" y="3" font-family="sans-serif">is_in_relationship_with</text></g><g class="relationship" transform="translate(-21.132767142273497 -113.12941639028975) rotate(424.7400039937371)"><path class="outline" fill="#A5ABB6" stroke="none" d="M 25 0.5 L 57.585577437905 0.5 L 57.585577437905 -0.5 L 25 -0.5 Z M 144.077764937905 0.5 L 176.66334237581 0.5 L 176.66334237581 3.5 L 183.66334237581 0 L 176.66334237581 -3.5 L 176.66334237581 -0.5 L 144.077764937905 -0.5 Z"/><text text-anchor="middle" pointer-events="none" font-size="8px" fill="#000000" x="100.831671187905" y="3" font-family="sans-serif">is_in_relationship_with</text></g><g class="relationship" transform="translate(-38.75981307569534 27.322785634613318) rotate(384.342771940453)"><path class="outline" fill="#A5ABB6" stroke="none" d="M 25 0.5 L 26.69327093544279 0.5 L 26.69327093544279 -0.5 L 25 -0.5 Z M 83.3846771854428 0.5 L 85.07794812088558 0.5 L 85.07794812088558 3.5 L 92.07794812088558 0 L 85.07794812088558 -3.5 L 85.07794812088558 -0.5 L 83.3846771854428 -0.5 Z"/><text text-anchor="middle" pointer-events="none" font-size="8px" fill="#000000" x="55.03897406044279" y="3" font-family="sans-serif">is_in_relatio…</text></g><g class="relationship" transform="translate(-130.50224320130744 -32.88543047440689) rotate(388.66441854956537)"><path class="outline" fill="#A5ABB6" stroke="none" d="M 25 0.5 L 66.31616998332348 0.5 L 66.31616998332348 -0.5 L 25 -0.5 Z M 152.80835748332348 0.5 L 194.12452746664695 0.5 L 194.12452746664695 3.5 L 201.12452746664695 0 L 194.12452746664695 -3.5 L 194.12452746664695 -0.5 L 152.80835748332348 -0.5 Z"/><text text-anchor="middle" pointer-events="none" font-size="8px" fill="#000000" x="109.56226373332348" y="3" font-family="sans-serif">is_in_relationship_with</text></g></g><g class="layer nodes"><g class="node" transform="translate(67.90941638029338,75.58168557506372)"><circle class="outline" cx="0" cy="0" r="25" fill="#F79767" stroke="#f36924" stroke-width="2px"/><text text-anchor="middle" pointer-events="none" font-family="sans-serif" dy="1.5625" font-size="25" fill="#FFFFFF"/><text text-anchor="middle" pointer-events="none" y="5" font-size="10px" fill="#FFFFFF" font-family="sans-serif"> Netflix</text></g><g class="node" transform="translate(189.88142265293965,316.5466314859724)"><circle class="outline" cx="0" cy="0" r="25" fill="#D9C8AE" stroke="#c0a378" stroke-width="2px"/><text text-anchor="middle" pointer-events="none" font-family="sans-serif" dy="1.5625" font-size="25" fill="#604A0E"/><text text-anchor="middle" pointer-events="none" y="5" font-size="10px" fill="#604A0E" font-family="sans-serif"> Purnell-…</text></g><g class="node" transform="translate(145.68416368247574,276.091961454874)"><circle class="outline" cx="0" cy="0" r="25" fill="#D9C8AE" stroke="#c0a378" stroke-width="2px"/><text text-anchor="middle" pointer-events="none" font-family="sans-serif" dy="1.5625" font-size="25" fill="#604A0E"/><text text-anchor="middle" pointer-events="none" y="5" font-size="10px" fill="#604A0E" font-family="sans-serif"> Ramam…</text></g><g class="node" transform="translate(-198.38118868287143,73.84809193742697)"><circle class="outline" cx="0" cy="0" r="25" fill="#D9C8AE" stroke="#c0a378" stroke-width="2px"/><text text-anchor="middle" pointer-events="none" font-family="sans-serif" dy="1.5625" font-size="25" fill="#604A0E"/><text text-anchor="middle" pointer-events="none" font-family="sans-serif" dy="1.5625" font-size="25" fill="#604A0E"/><text text-anchor="middle" pointer-events="none" y="0" font-size="10px" fill="#604A0E" font-family="sans-serif"> J.</text><text text-anchor="middle" pointer-events="none" y="10" font-size="10px" fill="#604A0E" font-family="sans-serif"> Hender…</text></g><g class="node" transform="translate(281.42464286187464,248.91077340274802)"><circle class="outline" cx="0" cy="0" r="25" fill="#D9C8AE" stroke="#c0a378" stroke-width="2px"/><text text-anchor="middle" pointer-events="none" font-family="sans-serif" dy="1.5625" font-size="25" fill="#604A0E"/><text text-anchor="middle" pointer-events="none" y="5" font-size="10px" fill="#604A0E" font-family="sans-serif"> Pavane</text></g><g class="node" transform="translate(-114.8760118560223,188.45933383247734)"><circle class="outline" cx="0" cy="0" r="25" fill="#D9C8AE" stroke="#c0a378" stroke-width="2px"/><text text-anchor="middle" pointer-events="none" font-family="sans-serif" dy="1.5625" font-size="25" fill="#604A0E"/><text text-anchor="middle" pointer-events="none" y="5" font-size="10px" fill="#604A0E" font-family="sans-serif"> Wells</text></g><g class="node" transform="translate(324.94254692428956,6.294331331581999)"><circle class="outline" cx="0" cy="0" r="25" fill="#D9C8AE" stroke="#c0a378" stroke-width="2px"/><text text-anchor="middle" pointer-events="none" font-family="sans-serif" dy="1.5625" font-size="25" fill="#604A0E"/><text text-anchor="middle" pointer-events="none" y="5" font-size="10px" fill="#604A0E" font-family="sans-serif"> Kapadia</text></g><g class="node" transform="translate(-89.95228970561124,279.83369012637183)"><circle class="outline" cx="0" cy="0" r="25" fill="#D9C8AE" stroke="#c0a378" stroke-width="2px"/><text text-anchor="middle" pointer-events="none" font-family="sans-serif" dy="1.5625" font-size="25" fill="#604A0E"/><text text-anchor="middle" pointer-events="none" y="5" font-size="10px" fill="#604A0E" font-family="sans-serif"> Hopkins</text></g><g class="node" transform="translate(99.57398327872782,235.15925286356293)"><circle class="outline" cx="0" cy="0" r="25" fill="#D9C8AE" stroke="#c0a378" stroke-width="2px"/><text text-anchor="middle" pointer-events="none" font-family="sans-serif" dy="1.5625" font-size="25" fill="#604A0E"/><text text-anchor="middle" pointer-events="none" y="5" font-size="10px" fill="#604A0E" font-family="sans-serif"> Mather</text></g><g class="node" transform="translate(-45.7931318350536,320.4090537490542)"><circle class="outline" cx="0" cy="0" r="25" fill="#D9C8AE" stroke="#c0a378" stroke-width="2px"/><text text-anchor="middle" pointer-events="none" font-family="sans-serif" dy="1.5625" font-size="25" fill="#604A0E"/><text text-anchor="middle" pointer-events="none" y="5" font-size="10px" fill="#604A0E" font-family="sans-serif"> Hunt</text></g><g class="node" transform="translate(230.07984680835543,86.79185370743873)"><circle class="outline" cx="0" cy="0" r="25" fill="#D9C8AE" stroke="#c0a378" stroke-width="2px"/><text text-anchor="middle" pointer-events="none" font-family="sans-serif" dy="1.5625" font-size="25" fill="#604A0E"/><text text-anchor="middle" pointer-events="none" y="5" font-size="10px" fill="#604A0E" font-family="sans-serif"> Anand</text></g><g class="node" transform="translate(302.16665549175525,191.7340314713424)"><circle class="outline" cx="0" cy="0" r="25" fill="#D9C8AE" stroke="#c0a378" stroke-width="2px"/><text text-anchor="middle" pointer-events="none" font-family="sans-serif" dy="1.5625" font-size="25" fill="#604A0E"/><text text-anchor="middle" pointer-events="none" y="5" font-size="10px" fill="#604A0E" font-family="sans-serif"> Enderwick</text></g><g class="node" transform="translate(288.7551471361303,98.62004891302037)"><circle class="outline" cx="0" cy="0" r="25" fill="#D9C8AE" stroke="#c0a378" stroke-width="2px"/><text text-anchor="middle" pointer-events="none" font-family="sans-serif" dy="1.5625" font-size="25" fill="#604A0E"/><text text-anchor="middle" pointer-events="none" y="5" font-size="10px" fill="#604A0E" font-family="sans-serif"> Pandit</text></g><g class="node" transform="translate(269.6568753250587,41.737836916768636)"><circle class="outline" cx="0" cy="0" r="25" fill="#D9C8AE" stroke="#c0a378" stroke-width="2px"/><text text-anchor="middle" pointer-events="none" font-family="sans-serif" dy="1.5625" font-size="25" fill="#604A0E"/><text text-anchor="middle" pointer-events="none" y="5" font-size="10px" fill="#604A0E" font-family="sans-serif"> Hart</text></g><g class="node" transform="translate(332.25278158173614,139.83280951923518)"><circle class="outline" cx="0" cy="0" r="25" fill="#D9C8AE" stroke="#c0a378" stroke-width="2px"/><text text-anchor="middle" pointer-events="none" font-family="sans-serif" dy="1.5625" font-size="25" fill="#604A0E"/><text text-anchor="middle" pointer-events="none" y="5" font-size="10px" fill="#604A0E" font-family="sans-serif"> McCord</text></g><g class="node" transform="translate(258.66401730068696,150.4458870578935)"><circle class="outline" cx="0" cy="0" r="25" fill="#D9C8AE" stroke="#c0a378" stroke-width="2px"/><text text-anchor="middle" pointer-events="none" font-family="sans-serif" dy="1.5625" font-size="25" fill="#604A0E"/><text text-anchor="middle" pointer-events="none" y="5" font-size="10px" fill="#604A0E" font-family="sans-serif"> Watson</text></g><g class="node" transform="translate(13.744834352487425,313.37578397165777)"><circle class="outline" cx="0" cy="0" r="25" fill="#D9C8AE" stroke="#c0a378" stroke-width="2px"/><text text-anchor="middle" pointer-events="none" font-family="sans-serif" dy="1.5625" font-size="25" fill="#604A0E"/><text text-anchor="middle" pointer-events="none" y="5" font-size="10px" fill="#604A0E" font-family="sans-serif"> Cousine…</text></g><g class="node" transform="translate(210.408625877003,-15.692422592000208)"><circle class="outline" cx="0" cy="0" r="25" fill="#D9C8AE" stroke="#c0a378" stroke-width="2px"/><text text-anchor="middle" pointer-events="none" font-family="sans-serif" dy="1.5625" font-size="25" fill="#604A0E"/><text text-anchor="middle" pointer-events="none" y="5" font-size="10px" fill="#604A0E" font-family="sans-serif"> Cranz</text></g><g class="node" transform="translate(-22.189917091551155,265.29201686141755)"><circle class="outline" cx="0" cy="0" r="25" fill="#D9C8AE" stroke="#c0a378" stroke-width="2px"/><text text-anchor="middle" pointer-events="none" font-family="sans-serif" dy="1.5625" font-size="25" fill="#604A0E"/><text text-anchor="middle" pointer-events="none" y="5" font-size="10px" fill="#604A0E" font-family="sans-serif"> Wusten…</text></g><g class="node" transform="translate(-66.92289897174867,224.4591855616181)"><circle class="outline" cx="0" cy="0" r="25" fill="#D9C8AE" stroke="#c0a378" stroke-width="2px"/><text text-anchor="middle" pointer-events="none" font-family="sans-serif" dy="1.5625" font-size="25" fill="#604A0E"/><text text-anchor="middle" pointer-events="none" y="5" font-size="10px" fill="#604A0E" font-family="sans-serif"> Rothstein</text></g><g class="node" transform="translate(-138.90149754107202,81.67283016567787)"><circle class="outline" cx="0" cy="0" r="25" fill="#D9C8AE" stroke="#c0a378" stroke-width="2px"/><text text-anchor="middle" pointer-events="none" font-family="sans-serif" dy="1.5625" font-size="25" fill="#604A0E"/><text text-anchor="middle" pointer-events="none" y="5" font-size="10px" fill="#604A0E" font-family="sans-serif"> Giancarlo</text></g><g class="node" transform="translate(-102.9930659630043,129.7102105655834)"><circle class="outline" cx="0" cy="0" r="25" fill="#D9C8AE" stroke="#c0a378" stroke-width="2px"/><text text-anchor="middle" pointer-events="none" font-family="sans-serif" dy="1.5625" font-size="25" fill="#604A0E"/><text text-anchor="middle" pointer-events="none" y="5" font-size="10px" fill="#604A0E" font-family="sans-serif"> Johnson</text></g><g class="node" transform="translate(180.21965182625934,227.0698387025641)"><circle class="outline" cx="0" cy="0" r="25" fill="#D9C8AE" stroke="#c0a378" stroke-width="2px"/><text text-anchor="middle" pointer-events="none" font-family="sans-serif" dy="1.5625" font-size="25" fill="#604A0E"/><text text-anchor="middle" pointer-events="none" y="5" font-size="10px" fill="#604A0E" font-family="sans-serif"> Kher</text></g><g class="node" transform="translate(197.16632548414108,163.83011570363968)"><circle class="outline" cx="0" cy="0" r="25" fill="#D9C8AE" stroke="#c0a378" stroke-width="2px"/><text text-anchor="middle" pointer-events="none" font-family="sans-serif" dy="1.5625" font-size="25" fill="#604A0E"/><text text-anchor="middle" pointer-events="none" y="5" font-size="10px" fill="#604A0E" font-family="sans-serif"> Poggi</text></g><g class="node" transform="translate(224.42761581561317,267.6110912940007)"><circle class="outline" cx="0" cy="0" r="25" fill="#D9C8AE" stroke="#c0a378" stroke-width="2px"/><text text-anchor="middle" pointer-events="none" font-family="sans-serif" dy="1.5625" font-size="25" fill="#604A0E"/><text text-anchor="middle" pointer-events="none" y="5" font-size="10px" fill="#604A0E" font-family="sans-serif"> Hastings</text></g><g class="node" transform="translate(138.90187284599386,-111.38833228073318)"><circle class="outline" cx="0" cy="0" r="25" fill="#D9C8AE" stroke="#c0a378" stroke-width="2px"/><text text-anchor="middle" pointer-events="none" font-family="sans-serif" dy="1.5625" font-size="25" fill="#604A0E"/><text text-anchor="middle" pointer-events="none" y="5" font-size="10px" fill="#604A0E" font-family="sans-serif"> Randolph</text></g><g class="node" transform="translate(-137.92032805630137,243.81608342041451)"><circle class="outline" cx="0" cy="0" r="25" fill="#D9C8AE" stroke="#c0a378" stroke-width="2px"/><text text-anchor="middle" pointer-events="none" font-family="sans-serif" dy="1.5625" font-size="25" fill="#604A0E"/><text text-anchor="middle" pointer-events="none" y="5" font-size="10px" fill="#604A0E" font-family="sans-serif"> Rendich</text></g><g class="node" transform="translate(338.2224427100372,64.78605853520524)"><circle class="outline" cx="0" cy="0" r="25" fill="#D9C8AE" stroke="#c0a378" stroke-width="2px"/><text text-anchor="middle" pointer-events="none" font-family="sans-serif" dy="1.5625" font-size="25" fill="#604A0E"/><text text-anchor="middle" pointer-events="none" y="5" font-size="10px" fill="#604A0E" font-family="sans-serif"> McCarthy</text></g><g class="node" transform="translate(174.1956278044476,108.39221980848022)"><circle class="outline" cx="0" cy="0" r="25" fill="#D9C8AE" stroke="#c0a378" stroke-width="2px"/><text text-anchor="middle" pointer-events="none" font-family="sans-serif" dy="1.5625" font-size="25" fill="#604A0E"/><text text-anchor="middle" pointer-events="none" y="5" font-size="10px" fill="#604A0E" font-family="sans-serif"> Brewster</text></g><g class="node" transform="translate(270.24565748667345,-18.168086239039695)"><circle class="outline" cx="0" cy="0" r="25" fill="#D9C8AE" stroke="#c0a378" stroke-width="2px"/><text text-anchor="middle" pointer-events="none" font-family="sans-serif" dy="1.5625" font-size="25" fill="#604A0E"/><text text-anchor="middle" pointer-events="none" y="5" font-size="10px" fill="#604A0E" font-family="sans-serif"> Cheung</text></g><g class="node" transform="translate(40.83713316034054,-44.36359726733447)"><circle class="outline" cx="0" cy="0" r="25" fill="#D9C8AE" stroke="#c0a378" stroke-width="2px"/><text text-anchor="middle" pointer-events="none" font-family="sans-serif" dy="1.5625" font-size="25" fill="#604A0E"/><text text-anchor="middle" pointer-events="none" y="5" font-size="10px" fill="#604A0E" font-family="sans-serif"> Witz</text></g><g class="node" transform="translate(178.24316507946978,-66.38281366346148)"><circle class="outline" cx="0" cy="0" r="25" fill="#D9C8AE" stroke="#c0a378" stroke-width="2px"/><text text-anchor="middle" pointer-events="none" font-family="sans-serif" dy="1.5625" font-size="25" fill="#604A0E"/><text text-anchor="middle" pointer-events="none" y="5" font-size="10px" fill="#604A0E" font-family="sans-serif"> Friedland</text></g><g class="node" transform="translate(-60.51987015691756,87.34376339373156)"><circle class="outline" cx="0" cy="0" r="25" fill="#D9C8AE" stroke="#c0a378" stroke-width="2px"/><text text-anchor="middle" pointer-events="none" font-family="sans-serif" dy="1.5625" font-size="25" fill="#604A0E"/><text text-anchor="middle" pointer-events="none" y="5" font-size="10px" fill="#604A0E" font-family="sans-serif"> Silva</text></g><g class="node" transform="translate(62.217734284021674,348.63645248399564)"><circle class="outline" cx="0" cy="0" r="25" fill="#D9C8AE" stroke="#c0a378" stroke-width="2px"/><text text-anchor="middle" pointer-events="none" font-family="sans-serif" dy="1.5625" font-size="25" fill="#604A0E"/><text text-anchor="middle" pointer-events="none" y="5" font-size="10px" fill="#604A0E" font-family="sans-serif"> Turner</text></g><g class="node" transform="translate(237.234805069493,208.39937737442116)"><circle class="outline" cx="0" cy="0" r="25" fill="#D9C8AE" stroke="#c0a378" stroke-width="2px"/><text text-anchor="middle" pointer-events="none" font-family="sans-serif" dy="1.5625" font-size="25" fill="#604A0E"/><text text-anchor="middle" pointer-events="none" y="5" font-size="10px" fill="#604A0E" font-family="sans-serif"> Droutman</text></g><g class="node" transform="translate(133.32413624295623,185.60345753568146)"><circle class="outline" cx="0" cy="0" r="25" fill="#D9C8AE" stroke="#c0a378" stroke-width="2px"/><text text-anchor="middle" pointer-events="none" font-family="sans-serif" dy="1.5625" font-size="25" fill="#604A0E"/><text text-anchor="middle" pointer-events="none" y="5" font-size="10px" fill="#604A0E" font-family="sans-serif"> Mcintyre</text></g><g class="node" transform="translate(85.02356128228536,-199.93691380623733)"><circle class="outline" cx="0" cy="0" r="25" fill="#D9C8AE" stroke="#c0a378" stroke-width="2px"/><text text-anchor="middle" pointer-events="none" font-family="sans-serif" dy="1.5625" font-size="25" fill="#604A0E"/><text text-anchor="middle" pointer-events="none" y="5" font-size="10px" fill="#604A0E" font-family="sans-serif"> Yang</text></g><g class="node" transform="translate(86.25192772081273,-140.15101578707146)"><circle class="outline" cx="0" cy="0" r="25" fill="#D9C8AE" stroke="#c0a378" stroke-width="2px"/><text text-anchor="middle" pointer-events="none" font-family="sans-serif" dy="1.5625" font-size="25" fill="#604A0E"/><text text-anchor="middle" pointer-events="none" y="5" font-size="10px" fill="#604A0E" font-family="sans-serif"> Sarandos</text></g><g class="node" transform="translate(191.16953233312805,41.02655794129731)"><circle class="outline" cx="0" cy="0" r="25" fill="#D9C8AE" stroke="#c0a378" stroke-width="2px"/><text text-anchor="middle" pointer-events="none" font-family="sans-serif" dy="1.5625" font-size="25" fill="#604A0E"/><text text-anchor="middle" pointer-events="none" y="5" font-size="10px" fill="#604A0E" font-family="sans-serif"> Funk</text></g><g class="node" transform="translate(-102.38048355310507,34.088274761065435)"><circle class="outline" cx="0" cy="0" r="25" fill="#D9C8AE" stroke="#c0a378" stroke-width="2px"/><text text-anchor="middle" pointer-events="none" font-family="sans-serif" dy="1.5625" font-size="25" fill="#604A0E"/><text text-anchor="middle" pointer-events="none" y="5" font-size="10px" fill="#604A0E" font-family="sans-serif"> Wood</text></g><g class="node" transform="translate(-174.81706041874966,189.14856186874513)"><circle class="outline" cx="0" cy="0" r="25" fill="#D9C8AE" stroke="#c0a378" stroke-width="2px"/><text text-anchor="middle" pointer-events="none" font-family="sans-serif" dy="1.5625" font-size="25" fill="#604A0E"/><text text-anchor="middle" pointer-events="none" y="5" font-size="10px" fill="#604A0E" font-family="sans-serif"> Peymani</text></g><g class="node" transform="translate(-135.03498614521524,-92.68147752402291)"><circle class="outline" cx="0" cy="0" r="25" fill="#D9C8AE" stroke="#c0a378" stroke-width="2px"/><text text-anchor="middle" pointer-events="none" font-family="sans-serif" dy="1.5625" font-size="25" fill="#604A0E"/><text text-anchor="middle" pointer-events="none" y="5" font-size="10px" fill="#604A0E" font-family="sans-serif"> Haley</text></g><g class="node" transform="translate(298.10809769115184,-71.22756054210346)"><circle class="outline" cx="0" cy="0" r="25" fill="#D9C8AE" stroke="#c0a378" stroke-width="2px"/><text text-anchor="middle" pointer-events="none" font-family="sans-serif" dy="1.5625" font-size="25" fill="#604A0E"/><text text-anchor="middle" pointer-events="none" y="5" font-size="10px" fill="#604A0E" font-family="sans-serif"> Giancarlo</text></g><g class="node" transform="translate(38.193576132944926,-104.3043437891204)"><circle class="outline" cx="0" cy="0" r="25" fill="#D9C8AE" stroke="#c0a378" stroke-width="2px"/><text text-anchor="middle" pointer-events="none" font-family="sans-serif" dy="1.5625" font-size="25" fill="#604A0E"/><text text-anchor="middle" pointer-events="none" y="5" font-size="10px" fill="#604A0E" font-family="sans-serif"> Rubin</text></g><g class="node" transform="translate(238.13924344087775,-68.9023596229945)"><circle class="outline" cx="0" cy="0" r="25" fill="#D9C8AE" stroke="#c0a378" stroke-width="2px"/><text text-anchor="middle" pointer-events="none" font-family="sans-serif" dy="1.5625" font-size="25" fill="#604A0E"/><text text-anchor="middle" pointer-events="none" font-family="sans-serif" dy="1.5625" font-size="25" fill="#604A0E"/><text text-anchor="middle" pointer-events="none" font-family="sans-serif" dy="1.5625" font-size="25" fill="#604A0E"/><text text-anchor="middle" pointer-events="none" y="-5" font-size="10px" fill="#604A0E" font-family="sans-serif"> George</text><text text-anchor="middle" pointer-events="none" y="5" font-size="10px" fill="#604A0E" font-family="sans-serif"> (Skip)</text><text text-anchor="middle" pointer-events="none" y="15" font-size="10px" fill="#604A0E" font-family="sans-serif"> Battle</text></g><g class="node" transform="translate(94.73810098610943,-70.73590938659945)"><circle class="outline" cx="0" cy="0" r="25" fill="#D9C8AE" stroke="#c0a378" stroke-width="2px"/><text text-anchor="middle" pointer-events="none" font-family="sans-serif" dy="1.5625" font-size="25" fill="#604A0E"/><text text-anchor="middle" pointer-events="none" y="5" font-size="10px" fill="#604A0E" font-family="sans-serif"> Occhipinti</text></g><g class="node" transform="translate(48.615894409349444,196.51898096603853)"><circle class="outline" cx="0" cy="0" r="25" fill="#D9C8AE" stroke="#c0a378" stroke-width="2px"/><text text-anchor="middle" pointer-events="none" font-family="sans-serif" dy="1.5625" font-size="25" fill="#604A0E"/><text text-anchor="middle" pointer-events="none" y="5" font-size="10px" fill="#604A0E" font-family="sans-serif"> Messers…</text></g><g class="node" transform="translate(-19.598566373505285,-53.19072228239428)"><circle class="outline" cx="0" cy="0" r="25" fill="#D9C8AE" stroke="#c0a378" stroke-width="2px"/><text text-anchor="middle" pointer-events="none" font-family="sans-serif" dy="1.5625" font-size="25" fill="#604A0E"/><text text-anchor="middle" pointer-events="none" y="5" font-size="10px" fill="#604A0E" font-family="sans-serif"> Lukowits…</text></g><g class="node" transform="translate(-26.85933408169213,-172.8186583159258)"><circle class="outline" cx="0" cy="0" r="25" fill="#D9C8AE" stroke="#c0a378" stroke-width="2px"/><text text-anchor="middle" pointer-events="none" font-family="sans-serif" dy="1.5625" font-size="25" fill="#604A0E"/><text text-anchor="middle" pointer-events="none" y="5" font-size="10px" fill="#604A0E" font-family="sans-serif"> Holmes</text></g><g class="node" transform="translate(85.81046069866072,293.5776285635086)"><circle class="outline" cx="0" cy="0" r="25" fill="#D9C8AE" stroke="#c0a378" stroke-width="2px"/><text text-anchor="middle" pointer-events="none" font-family="sans-serif" dy="1.5625" font-size="25" fill="#604A0E"/><text text-anchor="middle" pointer-events="none" y="5" font-size="10px" fill="#604A0E" font-family="sans-serif"> Bennett</text></g><g class="node" transform="translate(194.68087155948842,-133.09300731261135)"><circle class="outline" cx="0" cy="0" r="25" fill="#D9C8AE" stroke="#c0a378" stroke-width="2px"/><text text-anchor="middle" pointer-events="none" font-family="sans-serif" dy="1.5625" font-size="25" fill="#604A0E"/><text text-anchor="middle" pointer-events="none" y="5" font-size="10px" fill="#604A0E" font-family="sans-serif"> Hatta</text></g><g class="node" transform="translate(-11.056257096807762,202.57380372912107)"><circle class="outline" cx="0" cy="0" r="25" fill="#D9C8AE" stroke="#c0a378" stroke-width="2px"/><text text-anchor="middle" pointer-events="none" font-family="sans-serif" dy="1.5625" font-size="25" fill="#604A0E"/><text text-anchor="middle" pointer-events="none" y="5" font-size="10px" fill="#604A0E" font-family="sans-serif"> Battle</text></g><g class="node" transform="translate(-71.41013109576241,-22.946320703912594)"><circle class="outline" cx="0" cy="0" r="25" fill="#D9C8AE" stroke="#c0a378" stroke-width="2px"/><text text-anchor="middle" pointer-events="none" font-family="sans-serif" dy="1.5625" font-size="25" fill="#604A0E"/><text text-anchor="middle" pointer-events="none" y="5" font-size="10px" fill="#604A0E" font-family="sans-serif"> Villain</text></g><g class="node" transform="translate(32.820843864991566,-167.1739491591677)"><circle class="outline" cx="0" cy="0" r="25" fill="#D9C8AE" stroke="#c0a378" stroke-width="2px"/><text text-anchor="middle" pointer-events="none" font-family="sans-serif" dy="1.5625" font-size="25" fill="#604A0E"/><text text-anchor="middle" pointer-events="none" y="5" font-size="10px" fill="#604A0E" font-family="sans-serif"> Maliwat</text></g><g class="node" transform="translate(-78.91655197777476,-142.58665766652658)"><circle class="outline" cx="0" cy="0" r="25" fill="#D9C8AE" stroke="#c0a378" stroke-width="2px"/><text text-anchor="middle" pointer-events="none" font-family="sans-serif" dy="1.5625" font-size="25" fill="#604A0E"/><text text-anchor="middle" pointer-events="none" y="5" font-size="10px" fill="#604A0E" font-family="sans-serif"> Twerdahl</text></g><g class="node" transform="translate(130.0508703455013,334.0208096462214)"><circle class="outline" cx="0" cy="0" r="25" fill="#D9C8AE" stroke="#c0a378" stroke-width="2px"/><text text-anchor="middle" pointer-events="none" font-family="sans-serif" dy="1.5625" font-size="25" fill="#604A0E"/><text text-anchor="middle" pointer-events="none" y="5" font-size="10px" fill="#604A0E" font-family="sans-serif"> Lee</text></g><g class="node" transform="translate(-161.8627896001421,26.265877771221167)"><circle class="outline" cx="0" cy="0" r="25" fill="#D9C8AE" stroke="#c0a378" stroke-width="2px"/><text text-anchor="middle" pointer-events="none" font-family="sans-serif" dy="1.5625" font-size="25" fill="#604A0E"/><text text-anchor="middle" pointer-events="none" y="5" font-size="10px" fill="#604A0E" font-family="sans-serif"> Sabah</text></g><g class="node" transform="translate(254.20062158158203,-126.57598892341153)"><circle class="outline" cx="0" cy="0" r="25" fill="#D9C8AE" stroke="#c0a378" stroke-width="2px"/><text text-anchor="middle" pointer-events="none" font-family="sans-serif" dy="1.5625" font-size="25" fill="#604A0E"/><text text-anchor="middle" pointer-events="none" y="5" font-size="10px" fill="#604A0E" font-family="sans-serif"> McHenry</text></g><g class="node" transform="translate(139.03812981497236,-20.92289318309387)"><circle class="outline" cx="0" cy="0" r="25" fill="#D9C8AE" stroke="#c0a378" stroke-width="2px"/><text text-anchor="middle" pointer-events="none" font-family="sans-serif" dy="1.5625" font-size="25" fill="#604A0E"/><text text-anchor="middle" pointer-events="none" y="5" font-size="10px" fill="#604A0E" font-family="sans-serif"> Varin</text></g><g class="node" transform="translate(-189.93994438536328,-26.648011875609015)"><circle class="outline" cx="0" cy="0" r="25" fill="#D9C8AE" stroke="#c0a378" stroke-width="2px"/><text text-anchor="middle" pointer-events="none" font-family="sans-serif" dy="1.5625" font-size="25" fill="#604A0E"/><text text-anchor="middle" pointer-events="none" y="5" font-size="10px" fill="#604A0E" font-family="sans-serif"> Keck</text></g><g class="node" transform="translate(148.60219448385715,-171.43739357150093)"><circle class="outline" cx="0" cy="0" r="25" fill="#D9C8AE" stroke="#c0a378" stroke-width="2px"/><text text-anchor="middle" pointer-events="none" font-family="sans-serif" dy="1.5625" font-size="25" fill="#604A0E"/><text text-anchor="middle" pointer-events="none" y="5" font-size="10px" fill="#604A0E" font-family="sans-serif"> McEntee</text></g><g class="node" transform="translate(-75.93975956482059,-82.74955271665576)"><circle class="outline" cx="0" cy="0" r="25" fill="#D9C8AE" stroke="#c0a378" stroke-width="2px"/><text text-anchor="middle" pointer-events="none" font-family="sans-serif" dy="1.5625" font-size="25" fill="#604A0E"/><text text-anchor="middle" pointer-events="none" y="5" font-size="10px" fill="#604A0E" font-family="sans-serif"> Bilimoria</text></g><g class="node" transform="translate(-49.176074814745775,156.28477157475044)"><circle class="outline" cx="0" cy="0" r="25" fill="#D9C8AE" stroke="#c0a378" stroke-width="2px"/><text text-anchor="middle" pointer-events="none" font-family="sans-serif" dy="1.5625" font-size="25" fill="#604A0E"/><text text-anchor="middle" pointer-events="none" y="5" font-size="10px" fill="#604A0E" font-family="sans-serif"> Hyman</text></g><g class="node" transform="translate(37.377469377647685,258.205841610486)"><circle class="outline" cx="0" cy="0" r="25" fill="#D9C8AE" stroke="#c0a378" stroke-width="2px"/><text text-anchor="middle" pointer-events="none" font-family="sans-serif" dy="1.5625" font-size="25" fill="#604A0E"/><text text-anchor="middle" pointer-events="none" y="5" font-size="10px" fill="#604A0E" font-family="sans-serif"> Kilgore</text></g><g class="node" transform="translate(-175.3852369017818,129.22600264676646)"><circle class="outline" cx="0" cy="0" r="25" fill="#D9C8AE" stroke="#c0a378" stroke-width="2px"/><text text-anchor="middle" pointer-events="none" font-family="sans-serif" dy="1.5625" font-size="25" fill="#604A0E"/><text text-anchor="middle" pointer-events="none" y="5" font-size="10px" fill="#604A0E" font-family="sans-serif"> Malchin</text></g><g class="node" transform="translate(-21.132767142273497,-113.12941639028975)"><circle class="outline" cx="0" cy="0" r="25" fill="#D9C8AE" stroke="#c0a378" stroke-width="2px"/><text text-anchor="middle" pointer-events="none" font-family="sans-serif" dy="1.5625" font-size="25" fill="#604A0E"/><text text-anchor="middle" pointer-events="none" y="5" font-size="10px" fill="#604A0E" font-family="sans-serif"> Barton</text></g><g class="node" transform="translate(-38.75981307569534,27.322785634613318)"><circle class="outline" cx="0" cy="0" r="25" fill="#D9C8AE" stroke="#c0a378" stroke-width="2px"/><text text-anchor="middle" pointer-events="none" font-family="sans-serif" dy="1.5625" font-size="25" fill="#604A0E"/><text text-anchor="middle" pointer-events="none" y="5" font-size="10px" fill="#604A0E" font-family="sans-serif"> Kyncl</text></g><g class="node" transform="translate(-130.50224320130744,-32.88543047440689)"><circle class="outline" cx="0" cy="0" r="25" fill="#D9C8AE" stroke="#c0a378" stroke-width="2px"/><text text-anchor="middle" pointer-events="none" font-family="sans-serif" dy="1.5625" font-size="25" fill="#604A0E"/><text text-anchor="middle" pointer-events="none" y="5" font-size="10px" fill="#604A0E" font-family="sans-serif"> Cook</text></g></g></svg>