<svg xmlns="http://www.w3.org/2000/svg" width="338.2040710449219" height="358.0303649902344" viewBox="-61.5592155456543 -63.371524810791016 338.2040710449219 358.0303649902344"><title>Neo4j Graph Visualization</title><desc>Created using Neo4j (http://www.neo4j.com/)</desc><g class="layer relationships"><g class="relationship" transform="translate(164.64272636921754 228.9482641108483) rotate(230.0855135256379)"><path class="outline" fill="#A5ABB6" stroke="none" d="M 25 0.5 L 25.264259826360856 0.5 L 25.264259826360856 -0.5 L 25 -0.5 Z M 101.08066607636086 0.5 L 101.34492590272171 0.5 L 101.34492590272171 3.5 L 108.34492590272171 0 L 101.34492590272171 -3.5 L 101.34492590272171 -0.5 L 101.08066607636086 -0.5 Z"/><text text-anchor="middle" pointer-events="none" font-size="8px" fill="#000000" x="63.172462951360856" y="3" transform="rotate(180 63.172462951360856 0)" font-family="sans-serif">is_in_relationship…</text></g><g class="relationship" transform="translate(164.64272636921754 228.9482641108483) rotate(258.6035322883583)"><path class="outline" fill="#A5ABB6" stroke="none" d="M 25 0.5 L 25.317362823697053 0.5 L 25.317362823697053 -0.5 L 25 -0.5 Z M 101.13376907369705 0.5 L 101.4511318973941 0.5 L 101.4511318973941 3.5 L 108.4511318973941 0 L 101.4511318973941 -3.5 L 101.4511318973941 -0.5 L 101.13376907369705 -0.5 Z"/><text text-anchor="middle" pointer-events="none" font-size="8px" fill="#000000" x="63.22556594869705" y="3" transform="rotate(180 63.22556594869705 0)" font-family="sans-serif">is_in_relationship…</text></g><g class="relationship" transform="translate(222.53758684629344 213.75308079298298) rotate(211.25883608028983)"><path class="outline" fill="#A5ABB6" stroke="none" d="M 25 0.5 L 37.16208942808254 0.5 L 37.16208942808254 -0.5 L 25 -0.5 Z M 123.65427692808254 0.5 L 135.81636635616508 0.5 L 135.81636635616508 3.5 L 142.81636635616508 0 L 135.81636635616508 -3.5 L 135.81636635616508 -0.5 L 123.65427692808254 -0.5 Z"/><text text-anchor="middle" pointer-events="none" font-size="8px" fill="#000000" x="80.40818317808254" y="3" transform="rotate(180 80.40818317808254 0)" font-family="sans-serif">is_in_relationship_with</text></g><g class="relationship" transform="translate(222.53758684629344 213.75308079298298) rotate(233.91637922437178)"><path class="outline" fill="#A5ABB6" stroke="none" d="M 25 0.5 L 25.01446504348131 0.5 L 25.01446504348131 -0.5 L 25 -0.5 Z M 111.05743379348131 0.5 L 111.07189883696262 0.5 L 111.07189883696262 3.5 L 118.07189883696262 0 L 111.07189883696262 -3.5 L 111.07189883696262 -0.5 L 111.05743379348131 -0.5 Z"/><text text-anchor="middle" pointer-events="none" font-size="8px" fill="#000000" x="68.03594941848131" y="3" transform="rotate(180 68.03594941848131 0)" font-family="sans-serif">is_in_relationship_w…</text></g><g class="relationship" transform="translate(180.79156990237328 171.23807401581644) rotate(203.6616067128279)"><path class="outline" fill="#A5ABB6" stroke="none" d="M 25 0.5 L 25.90092595458269 0.5 L 25.90092595458269 -0.5 L 25 -0.5 Z M 78.14311345458269 0.5 L 79.04403940916538 0.5 L 79.04403940916538 3.5 L 86.04403940916538 0 L 79.04403940916538 -3.5 L 79.04403940916538 -0.5 L 78.14311345458269 -0.5 Z"/><text text-anchor="middle" pointer-events="none" font-size="8px" fill="#000000" x="52.02201970458269" y="3" transform="rotate(180 52.02201970458269 0)" font-family="sans-serif">is_in_relati…</text></g><g class="relationship" transform="translate(180.79156990237328 171.23807401581644) rotate(239.8190330638945)"><path class="outline" fill="#A5ABB6" stroke="none" d="M 25 0.5 L 25.785294689310504 0.5 L 25.785294689310504 -0.5 L 25 -0.5 Z M 51.789200939310504 0.5 L 52.57449562862101 0.5 L 52.57449562862101 3.5 L 59.57449562862101 0 L 52.57449562862101 -3.5 L 52.57449562862101 -0.5 L 51.789200939310504 -0.5 Z"/><text text-anchor="middle" pointer-events="none" font-size="8px" fill="#000000" x="38.787247814310504" y="3" transform="rotate(180 38.787247814310504 0)" font-family="sans-serif">is_i…</text></g><g class="relationship" transform="translate(238.6162507954122 156.10251301122753) rotate(190.45222381353005)"><path class="outline" fill="#A5ABB6" stroke="none" d="M 25 0.5 L 34.36656724633079 0.5 L 34.36656724633079 -0.5 L 25 -0.5 Z M 120.85875474633079 0.5 L 130.22532199266158 0.5 L 130.22532199266158 3.5 L 137.22532199266158 0 L 130.22532199266158 -3.5 L 130.22532199266158 -0.5 L 120.85875474633079 -0.5 Z"/><text text-anchor="middle" pointer-events="none" font-size="8px" fill="#000000" x="77.61266099633079" y="3" transform="rotate(180 77.61266099633079 0)" font-family="sans-serif">is_in_relationship_with</text></g><g class="relationship" transform="translate(238.6162507954122 156.10251301122753) rotate(210.01759051857948)"><path class="outline" fill="#A5ABB6" stroke="none" d="M 25 0.5 L 26.097660226242752 0.5 L 26.097660226242752 -0.5 L 25 -0.5 Z M 82.78906647624275 0.5 L 83.8867267024855 0.5 L 83.8867267024855 3.5 L 90.8867267024855 0 L 83.8867267024855 -3.5 L 83.8867267024855 -0.5 L 82.78906647624275 -0.5 Z"/><text text-anchor="middle" pointer-events="none" font-size="8px" fill="#000000" x="54.44336335124275" y="3" transform="rotate(180 54.44336335124275 0)" font-family="sans-serif">is_in_relatio…</text></g><g class="relationship" transform="translate(217.6422958295184 45.1203748451545) rotate(509.5202152370556)"><path class="outline" fill="#A5ABB6" stroke="none" d="M 25 0.5 L 33.642726220474884 0.5 L 33.642726220474884 -0.5 L 25 -0.5 Z M 120.13491372047488 0.5 L 128.77763994094977 0.5 L 128.77763994094977 3.5 L 135.77763994094977 0 L 128.77763994094977 -3.5 L 128.77763994094977 -0.5 L 120.13491372047488 -0.5 Z"/><text text-anchor="middle" pointer-events="none" font-size="8px" fill="#000000" x="76.88881997047488" y="3" transform="rotate(180 76.88881997047488 0)" font-family="sans-serif">is_in_relationship_with</text></g><g class="relationship" transform="translate(217.6422958295184 45.1203748451545) rotate(506.2623647088334)"><path class="outline" fill="#A5ABB6" stroke="none" d="M 25 0.5 L 25.438119371642294 0.5 L 25.438119371642294 -0.5 L 25 -0.5 Z M 63.004525621642294 0.5 L 63.44264499328459 0.5 L 63.44264499328459 3.5 L 70.44264499328459 0 L 63.44264499328459 -3.5 L 63.44264499328459 -0.5 L 63.004525621642294 -0.5 Z"/><text text-anchor="middle" pointer-events="none" font-size="8px" fill="#000000" x="44.221322496642294" y="3" transform="rotate(180 44.221322496642294 0)" font-family="sans-serif">is_in_r…</text></g><g class="relationship" transform="translate(247.64486712389615 96.87131743117268) rotate(529.9739730412081)"><path class="outline" fill="#A5ABB6" stroke="none" d="M 25 0.5 L 38.84196928561204 0.5 L 38.84196928561204 -0.5 L 25 -0.5 Z M 125.33415678561204 0.5 L 139.17612607122408 0.5 L 139.17612607122408 3.5 L 146.17612607122408 0 L 139.17612607122408 -3.5 L 139.17612607122408 -0.5 L 125.33415678561204 -0.5 Z"/><text text-anchor="middle" pointer-events="none" font-size="8px" fill="#000000" x="82.08806303561204" y="3" transform="rotate(180 82.08806303561204 0)" font-family="sans-serif">is_in_relationship_with</text></g><g class="relationship" transform="translate(247.64486712389615 96.87131743117268) rotate(539.3415211033589)"><path class="outline" fill="#A5ABB6" stroke="none" d="M 25 0.5 L 25.06835368787801 0.5 L 25.06835368787801 -0.5 L 25 -0.5 Z M 77.31054118787802 0.5 L 77.37889487575602 0.5 L 77.37889487575602 3.5 L 84.37889487575602 0 L 77.37889487575602 -3.5 L 77.37889487575602 -0.5 L 77.31054118787802 -0.5 Z"/><text text-anchor="middle" pointer-events="none" font-size="8px" fill="#000000" x="51.18944743787801" y="3" transform="rotate(180 51.18944743787801 0)" font-family="sans-serif">is_in_relati…</text></g><g class="relationship" transform="translate(151.00184636512998 19.08625659460005) rotate(483.7619018323554)"><path class="outline" fill="#A5ABB6" stroke="none" d="M 25 0.5 L 25.52171367152458 0.5 L 25.52171367152458 -0.5 L 25 -0.5 Z M 96.88890117152458 0.5 L 97.41061484304916 0.5 L 97.41061484304916 3.5 L 104.41061484304916 0 L 97.41061484304916 -3.5 L 97.41061484304916 -0.5 L 96.88890117152458 -0.5 Z"/><text text-anchor="middle" pointer-events="none" font-size="8px" fill="#000000" x="61.20530742152458" y="3" transform="rotate(180 61.20530742152458 0)" font-family="sans-serif">is_in_relationshi…</text></g><g class="relationship" transform="translate(151.00184636512998 19.08625659460005) rotate(459.1481653786018)"><path class="outline" fill="#A5ABB6" stroke="none" d="M 25 0.5 L 26.64153408512052 0.5 L 26.64153408512052 -0.5 L 25 -0.5 Z M 46.41887783512052 0.5 L 48.06041192024104 0.5 L 48.06041192024104 3.5 L 55.06041192024104 0 L 48.06041192024104 -3.5 L 48.06041192024104 -0.5 L 46.41887783512052 -0.5 Z"/><text text-anchor="middle" pointer-events="none" font-size="8px" fill="#000000" x="36.53020596012052" y="3" transform="rotate(180 36.53020596012052 0)" font-family="sans-serif">is…</text></g><g class="relationship" transform="translate(201.51969299228904 -12.43459849784605) rotate(491.3530691907596)"><path class="outline" fill="#A5ABB6" stroke="none" d="M 25 0.5 L 45.911235926967706 0.5 L 45.911235926967706 -0.5 L 25 -0.5 Z M 132.40342342696772 0.5 L 153.3146593539354 0.5 L 153.3146593539354 3.5 L 160.3146593539354 0 L 153.3146593539354 -3.5 L 153.3146593539354 -0.5 L 132.40342342696772 -0.5 Z"/><text text-anchor="middle" pointer-events="none" font-size="8px" fill="#000000" x="89.1573296769677" y="3" transform="rotate(180 89.1573296769677 0)" font-family="sans-serif">is_in_relationship_with</text></g><g class="relationship" transform="translate(201.51969299228904 -12.43459849784605) rotate(479.7713121325021)"><path class="outline" fill="#A5ABB6" stroke="none" d="M 25 0.5 L 25.39236666128737 0.5 L 25.39236666128737 -0.5 L 25 -0.5 Z M 94.98221041128737 0.5 L 95.37457707257474 0.5 L 95.37457707257474 3.5 L 102.37457707257474 0 L 95.37457707257474 -3.5 L 95.37457707257474 -0.5 L 94.98221041128737 -0.5 Z"/><text text-anchor="middle" pointer-events="none" font-size="8px" fill="#000000" x="60.18728853628737" y="3" transform="rotate(180 60.18728853628737 0)" font-family="sans-serif">is_in_relationsh…</text></g><g class="relationship" transform="translate(120.4175214294249 -32.219839777968986) rotate(464.5819002744746)"><path class="outline" fill="#A5ABB6" stroke="none" d="M 25 0.5 L 35.34421409841049 0.5 L 35.34421409841049 -0.5 L 25 -0.5 Z M 121.83640159841049 0.5 L 132.18061569682098 0.5 L 132.18061569682098 3.5 L 139.18061569682098 0 L 132.18061569682098 -3.5 L 132.18061569682098 -0.5 L 121.83640159841049 -0.5 Z"/><text text-anchor="middle" pointer-events="none" font-size="8px" fill="#000000" x="78.59030784841049" y="3" transform="rotate(180 78.59030784841049 0)" font-family="sans-serif">is_in_relationship_with</text></g><g class="relationship" transform="translate(120.4175214294249 -32.219839777968986) rotate(442.1999160736768)"><path class="outline" fill="#A5ABB6" stroke="none" d="M 25 0.5 L 26.59914175917214 0.5 L 26.59914175917214 -0.5 L 25 -0.5 Z M 97.96632925917214 0.5 L 99.56547101834428 0.5 L 99.56547101834428 3.5 L 106.56547101834428 0 L 99.56547101834428 -3.5 L 99.56547101834428 -0.5 L 97.96632925917214 -0.5 Z"/><text text-anchor="middle" pointer-events="none" font-size="8px" fill="#000000" x="62.28273550917214" y="3" font-family="sans-serif">is_in_relationshi…</text></g><g class="relationship" transform="translate(60.459897431127416 -34.37152671234024) rotate(443.4036844196717)"><path class="outline" fill="#A5ABB6" stroke="none" d="M 24.018736134675446,-6.953439040707552 L 24.277555179777966,-5.987513214418485 A 214.6301370344423 214.6301370344423 0 0 1 34.71874526448323,-8.5069851850634 L 34.508573581903846,-9.484649679581707 A 215.6301370344423 215.6301370344423 0 0 0 24.018736134675446,-6.953439040707552 Z M 120.61412579047922,-10.408392417856618 L 120.42497688924419,-9.426444001104727 A 214.6301370344423 214.6301370344423 0 0 1 130.91781559406687,-7.131552868526162 L 130.2037048824577,-4.21778453669793 L 137.8356268202676,-5.950922596742861 L 131.86996320954574,-11.016577310963804 L 131.1558524979366,-8.102808979135572 A 215.6301370344423 215.6301370344423 0 0 0 120.61412579047922,-10.408392417856618"/><text text-anchor="middle" pointer-events="none" font-size="8px" fill="#000000" x="77.52013305395973" y="-10.788479130170288" font-family="sans-serif">is_in_relationship_with</text></g><g class="relationship" transform="translate(60.459897431127416 -34.37152671234024) rotate(419.57552934253664)"><path class="outline" fill="#A5ABB6" stroke="none" d="M 25 0.5 L 30.083464594930206 0.5 L 30.083464594930206 -0.5 L 25 -0.5 Z M 116.5756520949302 0.5 L 121.65911668986041 0.5 L 121.65911668986041 3.5 L 128.6591166898604 0 L 121.65911668986041 -3.5 L 121.65911668986041 -0.5 L 116.5756520949302 -0.5 Z"/><text text-anchor="middle" pointer-events="none" font-size="8px" fill="#000000" x="73.3295583449302" y="3" font-family="sans-serif">is_in_relationship_with</text></g><g class="relationship" transform="translate(88.25677412107211 18.30480368338149) rotate(454.8388957193323)"><path class="outline" fill="#A5ABB6" stroke="none" d="M 25 0.5 L 25.645144087195007 0.5 L 25.645144087195007 -0.5 L 25 -0.5 Z M 76.109987837195 0.5 L 76.75513192439001 0.5 L 76.75513192439001 3.5 L 83.75513192439001 0 L 76.75513192439001 -3.5 L 76.75513192439001 -0.5 L 76.109987837195 -0.5 Z"/><text text-anchor="middle" pointer-events="none" font-size="8px" fill="#000000" x="50.87756596219501" y="3" transform="rotate(180 50.87756596219501 0)" font-family="sans-serif">is_in_relat…</text></g><g class="relationship" transform="translate(88.25677412107211 18.30480368338149) rotate(417.9292606903789)"><path class="outline" fill="#A5ABB6" stroke="none" d="M 25 0.5 L 26.148295803599524 0.5 L 26.148295803599524 -0.5 L 25 -0.5 Z M 61.050639553599524 0.5 L 62.19893535719905 0.5 L 62.19893535719905 3.5 L 69.19893535719905 0 L 62.19893535719905 -3.5 L 62.19893535719905 -0.5 L 61.050639553599524 -0.5 Z"/><text text-anchor="middle" pointer-events="none" font-size="8px" fill="#000000" x="43.599467678599524" y="3" font-family="sans-serif">is_in_…</text></g><g class="relationship" transform="translate(26.07150326850557 14.546740844342521) rotate(424.6959101286078)"><path class="outline" fill="#A5ABB6" stroke="none" d="M 25 0.5 L 25.942473916778262 0.5 L 25.942473916778262 -0.5 L 25 -0.5 Z M 91.08309891677825 0.5 L 92.02557283355652 0.5 L 92.02557283355652 3.5 L 99.02557283355652 0 L 92.02557283355652 -3.5 L 92.02557283355652 -0.5 L 91.08309891677825 -0.5 Z"/><text text-anchor="middle" pointer-events="none" font-size="8px" fill="#000000" x="58.51278641677826" y="3" font-family="sans-serif">is_in_relations…</text></g><g class="relationship" transform="translate(26.07150326850557 14.546740844342521) rotate(396.6832663442896)"><path class="outline" fill="#A5ABB6" stroke="none" d="M 25 0.5 L 26.32271539760073 0.5 L 26.32271539760073 -0.5 L 25 -0.5 Z M 106.58834039760073 0.5 L 107.91105579520146 0.5 L 107.91105579520146 3.5 L 114.91105579520146 0 L 107.91105579520146 -3.5 L 107.91105579520146 -0.5 L 106.58834039760073 -0.5 Z"/><text text-anchor="middle" pointer-events="none" font-size="8px" fill="#000000" x="66.45552789760073" y="3" font-family="sans-serif">is_in_relationship_…</text></g><g class="relationship" transform="translate(21.295681727155262 74.34195770663648) rotate(402.16307936933435)"><path class="outline" fill="#A5ABB6" stroke="none" d="M 25 0.5 L 25.59151029478545 0.5 L 25.59151029478545 -0.5 L 25 -0.5 Z M 45.36885404478545 0.5 L 45.9603643395709 0.5 L 45.9603643395709 3.5 L 52.9603643395709 0 L 45.9603643395709 -3.5 L 45.9603643395709 -0.5 L 45.36885404478545 -0.5 Z"/><text text-anchor="middle" pointer-events="none" font-size="8px" fill="#000000" x="35.48018216978545" y="3" font-family="sans-serif">is…</text></g><g class="relationship" transform="translate(21.295681727155262 74.34195770663648) rotate(371.4939036344205)"><path class="outline" fill="#A5ABB6" stroke="none" d="M 25 0.5 L 25.615386678093437 0.5 L 25.615386678093437 -0.5 L 25 -0.5 Z M 86.75601167809344 0.5 L 87.37139835618687 0.5 L 87.37139835618687 3.5 L 94.37139835618687 0 L 87.37139835618687 -3.5 L 87.37139835618687 -0.5 L 86.75601167809344 -0.5 Z"/><text text-anchor="middle" pointer-events="none" font-size="8px" fill="#000000" x="56.18569917809344" y="3" font-family="sans-serif">is_in_relation…</text></g><g class="relationship" transform="translate(-27.869731796863626 40.624277751168044) rotate(398.8182108750631)"><path class="outline" fill="#A5ABB6" stroke="none" d="M 25 0.5 L 25.002292950896447 0.5 L 25.002292950896447 -0.5 L 25 -0.5 Z M 105.26791795089645 0.5 L 105.2702109017929 0.5 L 105.2702109017929 3.5 L 112.2702109017929 0 L 105.2702109017929 -3.5 L 105.2702109017929 -0.5 L 105.26791795089645 -0.5 Z"/><text text-anchor="middle" pointer-events="none" font-size="8px" fill="#000000" x="65.13510545089645" y="3" font-family="sans-serif">is_in_relationship_…</text></g><g class="relationship" transform="translate(-27.869731796863626 40.624277751168044) rotate(379.0913514447908)"><path class="outline" fill="#A5ABB6" stroke="none" d="M 25 0.5 L 41.16037576709175 0.5 L 41.16037576709175 -0.5 L 25 -0.5 Z M 127.65256326709175 0.5 L 143.8129390341835 0.5 L 143.8129390341835 3.5 L 150.8129390341835 0 L 143.8129390341835 -3.5 L 143.8129390341835 -0.5 L 127.65256326709175 -0.5 Z"/><text text-anchor="middle" pointer-events="none" font-size="8px" fill="#000000" x="84.40646951709175" y="3" font-family="sans-serif">is_in_relationship_with</text></g><g class="relationship" transform="translate(-20.419930339266315 158.89755288313373) rotate(342.05478842901493)"><path class="outline" fill="#A5ABB6" stroke="none" d="M 25 0.5 L 26.898978126288974 0.5 L 26.898978126288974 -0.5 L 25 -0.5 Z M 70.69194687628897 0.5 L 72.59092500257795 0.5 L 72.59092500257795 3.5 L 79.59092500257795 0 L 72.59092500257795 -3.5 L 72.59092500257795 -0.5 L 70.69194687628897 -0.5 Z"/><text text-anchor="middle" pointer-events="none" font-size="8px" fill="#000000" x="48.795462501288974" y="3" font-family="sans-serif">is_in_rel…</text></g><g class="relationship" transform="translate(-20.419930339266315 158.89755288313373) rotate(339.0463890246706)"><path class="outline" fill="#A5ABB6" stroke="none" d="M 25 0.5 L 38.21920122816776 0.5 L 38.21920122816776 -0.5 L 25 -0.5 Z M 124.71138872816776 0.5 L 137.93058995633552 0.5 L 137.93058995633552 3.5 L 144.93058995633552 0 L 137.93058995633552 -3.5 L 137.93058995633552 -0.5 L 124.71138872816776 -0.5 Z"/><text text-anchor="middle" pointer-events="none" font-size="8px" fill="#000000" x="81.46529497816776" y="3" font-family="sans-serif">is_in_relationship_with</text></g><g class="relationship" transform="translate(-32.55921506246639 100.27913655736033) rotate(373.3010304289252)"><path class="outline" fill="#A5ABB6" stroke="none" d="M 25 0.5 L 25.51399906528829 0.5 L 25.51399906528829 -0.5 L 25 -0.5 Z M 82.20540531528829 0.5 L 82.71940438057658 0.5 L 82.71940438057658 3.5 L 89.71940438057658 0 L 82.71940438057658 -3.5 L 82.71940438057658 -0.5 L 82.20540531528829 -0.5 Z"/><text text-anchor="middle" pointer-events="none" font-size="8px" fill="#000000" x="53.85970219028829" y="3" font-family="sans-serif">is_in_relatio…</text></g><g class="relationship" transform="translate(-32.55921506246639 100.27913655736033) rotate(359.2786788307127)"><path class="outline" fill="#A5ABB6" stroke="none" d="M 25 0.5 L 38.67688098189042 0.5 L 38.67688098189042 -0.5 L 25 -0.5 Z M 125.16906848189042 0.5 L 138.84594946378084 0.5 L 138.84594946378084 3.5 L 145.84594946378084 0 L 138.84594946378084 -3.5 L 138.84594946378084 -0.5 L 125.16906848189042 -0.5 Z"/><text text-anchor="middle" pointer-events="none" font-size="8px" fill="#000000" x="81.92297473189042" y="3" font-family="sans-serif">is_in_relationship_with</text></g><g class="relationship" transform="translate(60.459897431127416 -34.37152671234024) rotate(443.4036844196717)"><path class="outline" fill="#A5ABB6" stroke="none" d="M 24.018736134675446,6.953439040707552 L 24.277555179777966,5.987513214418485 A 214.6301370344423 214.6301370344423 0 0 0 34.71874526448331,8.5069851850634 L 34.50857358190393,9.484649679581707 A 215.6301370344423 215.6301370344423 0 0 1 24.018736134675446,6.953439040707552 Z M 120.61412579047933,10.40839241785659 L 120.4249768892443,9.426444001104699 A 214.6301370344423 214.6301370344423 0 0 0 130.91781559406687,7.131552868526162 L 130.2037048824577,4.21778453669793 L 137.8356268202676,5.950922596742861 L 131.86996320954574,11.016577310963804 L 131.1558524979366,8.102808979135572 A 215.6301370344423 215.6301370344423 0 0 1 120.61412579047933,10.40839241785659"/><text text-anchor="middle" pointer-events="none" font-size="8px" fill="#000000" x="77.52013305395984" y="16.788479130170288" font-family="sans-serif">is_in_relationship_with</text></g><g class="relationship" transform="translate(13.397511357448778 208.17755212494833) rotate(308.8654378639858)"><path class="outline" fill="#A5ABB6" stroke="none" d="M 25 0.5 L 26.9429428094922 0.5 L 26.9429428094922 -0.5 L 25 -0.5 Z M 70.7359115594922 0.5 L 72.6788543689844 0.5 L 72.6788543689844 3.5 L 79.6788543689844 0 L 72.6788543689844 -3.5 L 72.6788543689844 -0.5 L 70.7359115594922 -0.5 Z"/><text text-anchor="middle" pointer-events="none" font-size="8px" fill="#000000" x="48.8394271844922" y="3" font-family="sans-serif">is_in_rel…</text></g><g class="relationship" transform="translate(13.397511357448778 208.17755212494833) rotate(318.6112354826288)"><path class="outline" fill="#A5ABB6" stroke="none" d="M 25 0.5 L 36.47764913446227 0.5 L 36.47764913446227 -0.5 L 25 -0.5 Z M 122.96983663446227 0.5 L 134.44748576892454 0.5 L 134.44748576892454 3.5 L 141.44748576892454 0 L 134.44748576892454 -3.5 L 134.44748576892454 -0.5 L 122.96983663446227 -0.5 Z"/><text text-anchor="middle" pointer-events="none" font-size="8px" fill="#000000" x="79.72374288446227" y="3" font-family="sans-serif">is_in_relationship_with</text></g><g class="relationship" transform="translate(108.9699137984864 206.65096554083334) rotate(249.5098621750111)"><path class="outline" fill="#A5ABB6" stroke="none" d="M 25 0.5 L 26.188279211285355 0.5 L 26.188279211285355 -0.5 L 25 -0.5 Z M 52.192185461285355 0.5 L 53.38046467257071 0.5 L 53.38046467257071 3.5 L 60.38046467257071 0 L 53.38046467257071 -3.5 L 53.38046467257071 -0.5 L 52.192185461285355 -0.5 Z"/><text text-anchor="middle" pointer-events="none" font-size="8px" fill="#000000" x="39.190232336285355" y="3" transform="rotate(180 39.190232336285355 0)" font-family="sans-serif">is_i…</text></g><g class="relationship" transform="translate(108.9699137984864 206.65096554083334) rotate(285.1106444134567)"><path class="outline" fill="#A5ABB6" stroke="none" d="M 25 0.5 L 26.58353795214402 0.5 L 26.58353795214402 -0.5 L 25 -0.5 Z M 78.82572545214401 0.5 L 80.40926340428804 0.5 L 80.40926340428804 3.5 L 87.40926340428804 0 L 80.40926340428804 -3.5 L 80.40926340428804 -0.5 L 78.82572545214401 -0.5 Z"/><text text-anchor="middle" pointer-events="none" font-size="8px" fill="#000000" x="52.70463170214402" y="3" font-family="sans-serif">is_in_relati…</text></g><g class="relationship" transform="translate(61.69847678795064 243.48493668881014) rotate(278.46476703071045)"><path class="outline" fill="#A5ABB6" stroke="none" d="M 25 0.5 L 27.203860970478495 0.5 L 27.203860970478495 -0.5 L 25 -0.5 Z M 83.8952672204785 0.5 L 86.09912819095699 0.5 L 86.09912819095699 3.5 L 93.09912819095699 0 L 86.09912819095699 -3.5 L 86.09912819095699 -0.5 L 83.8952672204785 -0.5 Z"/><text text-anchor="middle" pointer-events="none" font-size="8px" fill="#000000" x="55.549564095478495" y="3" font-family="sans-serif">is_in_relatio…</text></g><g class="relationship" transform="translate(61.69847678795064 243.48493668881014) rotate(297.780527967051)"><path class="outline" fill="#A5ABB6" stroke="none" d="M 25 0.5 L 35.40046377624827 0.5 L 35.40046377624827 -0.5 L 25 -0.5 Z M 121.89265127624827 0.5 L 132.29311505249655 0.5 L 132.29311505249655 3.5 L 139.29311505249655 0 L 132.29311505249655 -3.5 L 132.29311505249655 -0.5 L 121.89265127624827 -0.5 Z"/><text text-anchor="middle" pointer-events="none" font-size="8px" fill="#000000" x="78.64655752624827" y="3" font-family="sans-serif">is_in_relationship_with</text></g><g class="relationship" transform="translate(117.3677736790319 265.65883624897964) rotate(254.5993501134036)"><path class="outline" fill="#A5ABB6" stroke="none" d="M 25 0.5 L 25.33544334731137 0.5 L 25.33544334731137 -0.5 L 25 -0.5 Z M 111.82763084731137 0.5 L 112.16307419462274 0.5 L 112.16307419462274 3.5 L 119.16307419462274 0 L 112.16307419462274 -3.5 L 112.16307419462274 -0.5 L 111.82763084731137 -0.5 Z"/><text text-anchor="middle" pointer-events="none" font-size="8px" fill="#000000" x="68.58153709731137" y="3" transform="rotate(180 68.58153709731137 0)" font-family="sans-serif">is_in_relationship_with</text></g><g class="relationship" transform="translate(117.3677736790319 265.65883624897964) rotate(277.11293038252586)"><path class="outline" fill="#A5ABB6" stroke="none" d="M 25 0.5 L 37.668809729222374 0.5 L 37.668809729222374 -0.5 L 25 -0.5 Z M 124.16099722922237 0.5 L 136.82980695844475 0.5 L 136.82980695844475 3.5 L 143.82980695844475 0 L 136.82980695844475 -3.5 L 136.82980695844475 -0.5 L 124.16099722922237 -0.5 Z"/><text text-anchor="middle" pointer-events="none" font-size="8px" fill="#000000" x="80.91490347922237" y="3" font-family="sans-serif">is_in_relationship_with</text></g><g class="relationship" transform="translate(79.0828109314858 126.67231320209099) rotate(334.25477437521295)"><path class="outline" fill="#A5ABB6" stroke="none" d="M 24.018736134675446,6.953439040707552 L 24.277555179777966,5.987513214418485 A 21.41755862934261 21.41755862934261 0 0 0 29.285596994072574,6.7106100127332375 L 29.260606738747867,7.710297707535371 A 22.41755862934261 22.41755862934261 0 0 1 24.018736134675446,6.953439040707552 Z M 29.260606738747867,7.710297707535371 L 29.285596994072574,6.7106100127332375 A 21.41755862934261 21.41755862934261 0 0 0 34.32351309560783,6.238642696758983 L 33.69281294146598,3.3056890122345504 L 41.27218838518848,5.255834617848741 L 35.16444663446362,10.149247609458227 L 34.533746480321774,7.216293924933794 A 22.41755862934261 22.41755862934261 0 0 1 29.260606738747867,7.710297707535371"/><text text-anchor="middle" pointer-events="none" font-size="8px" fill="#000000" x="29.27310186641022" y="10.210453860134304" font-family="sans-serif"/></g><g class="relationship" transform="translate(138.27319557408555 98.1283403593789) rotate(514.254774375213)"><path class="outline" fill="#A5ABB6" stroke="none" d="M 24.018736134675446,6.953439040707552 L 24.277555179777966,5.987513214418485 A 21.41755862934261 21.41755862934261 0 0 0 29.285596994072574,6.7106100127332375 L 29.260606738747867,7.710297707535371 A 22.41755862934261 22.41755862934261 0 0 1 24.018736134675446,6.953439040707552 Z M 29.260606738747867,7.710297707535371 L 29.285596994072574,6.7106100127332375 A 21.41755862934261 21.41755862934261 0 0 0 34.32351309560783,6.238642696758983 L 33.69281294146598,3.3056890122345504 L 41.27218838518848,5.255834617848741 L 35.16444663446362,10.149247609458227 L 34.533746480321774,7.216293924933794 A 22.41755862934261 22.41755862934261 0 0 1 29.260606738747867,7.710297707535371"/><text text-anchor="middle" pointer-events="none" font-size="8px" fill="#000000" x="29.27310186641022" y="10.210453860134304" transform="rotate(180 29.27310186641022 7.2104538601343044)" font-family="sans-serif"/></g></g><g class="layer nodes"><g class="node" transform="translate(79.0828109314858,126.67231320209099)"><circle class="outline" cx="0" cy="0" r="25" fill="#F79767" stroke="#f36924" stroke-width="2px"/><text text-anchor="middle" pointer-events="none" font-family="sans-serif" dy="1.5625" font-size="25" fill="#FFFFFF"/><text text-anchor="middle" pointer-events="none" y="5" font-size="10px" fill="#FFFFFF" font-family="sans-serif"> Apple</text></g><g class="node" transform="translate(164.64272636921754,228.9482641108483)"><circle class="outline" cx="0" cy="0" r="25" fill="#D9C8AE" stroke="#c0a378" stroke-width="2px"/><text text-anchor="middle" pointer-events="none" font-family="sans-serif" dy="1.5625" font-size="25" fill="#604A0E"/><text text-anchor="middle" pointer-events="none" y="5" font-size="10px" fill="#604A0E" font-family="sans-serif"> Parsey</text></g><g class="node" transform="translate(138.27319557408555,98.1283403593789)"><circle class="outline" cx="0" cy="0" r="25" fill="#F79767" stroke="#f36924" stroke-width="2px"/><text text-anchor="middle" pointer-events="none" font-family="sans-serif" dy="1.5625" font-size="25" fill="#FFFFFF"/><text text-anchor="middle" pointer-events="none" y="5" font-size="10px" fill="#FFFFFF" font-family="sans-serif"> Microsoft</text></g><g class="node" transform="translate(222.53758684629344,213.75308079298298)"><circle class="outline" cx="0" cy="0" r="25" fill="#D9C8AE" stroke="#c0a378" stroke-width="2px"/><text text-anchor="middle" pointer-events="none" font-family="sans-serif" dy="1.5625" font-size="25" fill="#604A0E"/><text text-anchor="middle" pointer-events="none" y="5" font-size="10px" fill="#604A0E" font-family="sans-serif"> Avant</text></g><g class="node" transform="translate(180.79156990237328,171.23807401581644)"><circle class="outline" cx="0" cy="0" r="25" fill="#D9C8AE" stroke="#c0a378" stroke-width="2px"/><text text-anchor="middle" pointer-events="none" font-family="sans-serif" dy="1.5625" font-size="25" fill="#604A0E"/><text text-anchor="middle" pointer-events="none" y="5" font-size="10px" fill="#604A0E" font-family="sans-serif"> Goade</text></g><g class="node" transform="translate(238.6162507954122,156.10251301122753)"><circle class="outline" cx="0" cy="0" r="25" fill="#D9C8AE" stroke="#c0a378" stroke-width="2px"/><text text-anchor="middle" pointer-events="none" font-family="sans-serif" dy="1.5625" font-size="25" fill="#604A0E"/><text text-anchor="middle" pointer-events="none" y="5" font-size="10px" fill="#604A0E" font-family="sans-serif"> Mighdoll</text></g><g class="node" transform="translate(217.6422958295184,45.1203748451545)"><circle class="outline" cx="0" cy="0" r="25" fill="#D9C8AE" stroke="#c0a378" stroke-width="2px"/><text text-anchor="middle" pointer-events="none" font-family="sans-serif" dy="1.5625" font-size="25" fill="#604A0E"/><text text-anchor="middle" pointer-events="none" y="5" font-size="10px" fill="#604A0E" font-family="sans-serif"> Kummert</text></g><g class="node" transform="translate(247.64486712389615,96.87131743117268)"><circle class="outline" cx="0" cy="0" r="25" fill="#D9C8AE" stroke="#c0a378" stroke-width="2px"/><text text-anchor="middle" pointer-events="none" font-family="sans-serif" dy="1.5625" font-size="25" fill="#604A0E"/><text text-anchor="middle" pointer-events="none" y="5" font-size="10px" fill="#604A0E" font-family="sans-serif"> Cheng</text></g><g class="node" transform="translate(151.00184636512998,19.08625659460005)"><circle class="outline" cx="0" cy="0" r="25" fill="#D9C8AE" stroke="#c0a378" stroke-width="2px"/><text text-anchor="middle" pointer-events="none" font-family="sans-serif" dy="1.5625" font-size="25" fill="#604A0E"/><text text-anchor="middle" pointer-events="none" y="5" font-size="10px" fill="#604A0E" font-family="sans-serif"> Mittal</text></g><g class="node" transform="translate(201.51969299228904,-12.43459849784605)"><circle class="outline" cx="0" cy="0" r="25" fill="#D9C8AE" stroke="#c0a378" stroke-width="2px"/><text text-anchor="middle" pointer-events="none" font-family="sans-serif" dy="1.5625" font-size="25" fill="#604A0E"/><text text-anchor="middle" pointer-events="none" y="5" font-size="10px" fill="#604A0E" font-family="sans-serif"> Zätterstr…</text></g><g class="node" transform="translate(120.4175214294249,-32.219839777968986)"><circle class="outline" cx="0" cy="0" r="25" fill="#D9C8AE" stroke="#c0a378" stroke-width="2px"/><text text-anchor="middle" pointer-events="none" font-family="sans-serif" dy="1.5625" font-size="25" fill="#604A0E"/><text text-anchor="middle" pointer-events="none" font-family="sans-serif" dy="1.5625" font-size="25" fill="#604A0E"/><text text-anchor="middle" pointer-events="none" y="0" font-size="10px" fill="#604A0E" font-family="sans-serif"> F.E.</text><text text-anchor="middle" pointer-events="none" y="10" font-size="10px" fill="#604A0E" font-family="sans-serif"> Weissm…</text></g><g class="node" transform="translate(60.459897431127416,-34.37152671234024)"><circle class="outline" cx="0" cy="0" r="25" fill="#D9C8AE" stroke="#c0a378" stroke-width="2px"/><text text-anchor="middle" pointer-events="none" font-family="sans-serif" dy="1.5625" font-size="25" fill="#604A0E"/><text text-anchor="middle" pointer-events="none" y="5" font-size="10px" fill="#604A0E" font-family="sans-serif"> Archer</text></g><g class="node" transform="translate(88.25677412107211,18.30480368338149)"><circle class="outline" cx="0" cy="0" r="25" fill="#D9C8AE" stroke="#c0a378" stroke-width="2px"/><text text-anchor="middle" pointer-events="none" font-family="sans-serif" dy="1.5625" font-size="25" fill="#604A0E"/><text text-anchor="middle" pointer-events="none" y="5" font-size="10px" fill="#604A0E" font-family="sans-serif"> Akhter</text></g><g class="node" transform="translate(26.07150326850557,14.546740844342521)"><circle class="outline" cx="0" cy="0" r="25" fill="#D9C8AE" stroke="#c0a378" stroke-width="2px"/><text text-anchor="middle" pointer-events="none" font-family="sans-serif" dy="1.5625" font-size="25" fill="#604A0E"/><text text-anchor="middle" pointer-events="none" y="5" font-size="10px" fill="#604A0E" font-family="sans-serif"> Burns</text></g><g class="node" transform="translate(21.295681727155262,74.34195770663648)"><circle class="outline" cx="0" cy="0" r="25" fill="#D9C8AE" stroke="#c0a378" stroke-width="2px"/><text text-anchor="middle" pointer-events="none" font-family="sans-serif" dy="1.5625" font-size="25" fill="#604A0E"/><text text-anchor="middle" pointer-events="none" y="5" font-size="10px" fill="#604A0E" font-family="sans-serif"> Raikes</text></g><g class="node" transform="translate(-27.869731796863626,40.624277751168044)"><circle class="outline" cx="0" cy="0" r="25" fill="#D9C8AE" stroke="#c0a378" stroke-width="2px"/><text text-anchor="middle" pointer-events="none" font-family="sans-serif" dy="1.5625" font-size="25" fill="#604A0E"/><text text-anchor="middle" pointer-events="none" y="5" font-size="10px" fill="#604A0E" font-family="sans-serif"> Upadhyay</text></g><g class="node" transform="translate(-20.419930339266315,158.89755288313373)"><circle class="outline" cx="0" cy="0" r="25" fill="#D9C8AE" stroke="#c0a378" stroke-width="2px"/><text text-anchor="middle" pointer-events="none" font-family="sans-serif" dy="1.5625" font-size="25" fill="#604A0E"/><text text-anchor="middle" pointer-events="none" y="5" font-size="10px" fill="#604A0E" font-family="sans-serif"> Lewin</text></g><g class="node" transform="translate(-32.55921506246639,100.27913655736033)"><circle class="outline" cx="0" cy="0" r="25" fill="#D9C8AE" stroke="#c0a378" stroke-width="2px"/><text text-anchor="middle" pointer-events="none" font-family="sans-serif" dy="1.5625" font-size="25" fill="#604A0E"/><text text-anchor="middle" pointer-events="none" y="5" font-size="10px" fill="#604A0E" font-family="sans-serif"> Glass</text></g><g class="node" transform="translate(13.397511357448778,208.17755212494833)"><circle class="outline" cx="0" cy="0" r="25" fill="#D9C8AE" stroke="#c0a378" stroke-width="2px"/><text text-anchor="middle" pointer-events="none" font-family="sans-serif" dy="1.5625" font-size="25" fill="#604A0E"/><text text-anchor="middle" pointer-events="none" y="5" font-size="10px" fill="#604A0E" font-family="sans-serif"> Lee</text></g><g class="node" transform="translate(108.9699137984864,206.65096554083334)"><circle class="outline" cx="0" cy="0" r="25" fill="#D9C8AE" stroke="#c0a378" stroke-width="2px"/><text text-anchor="middle" pointer-events="none" font-family="sans-serif" dy="1.5625" font-size="25" fill="#604A0E"/><text text-anchor="middle" pointer-events="none" y="5" font-size="10px" fill="#604A0E" font-family="sans-serif"> Pomeroy</text></g><g class="node" transform="translate(61.69847678795064,243.48493668881014)"><circle class="outline" cx="0" cy="0" r="25" fill="#D9C8AE" stroke="#c0a378" stroke-width="2px"/><text text-anchor="middle" pointer-events="none" font-family="sans-serif" dy="1.5625" font-size="25" fill="#604A0E"/><text text-anchor="middle" pointer-events="none" y="5" font-size="10px" fill="#604A0E" font-family="sans-serif"> Blanken…</text></g><g class="node" transform="translate(117.3677736790319,265.65883624897964)"><circle class="outline" cx="0" cy="0" r="25" fill="#D9C8AE" stroke="#c0a378" stroke-width="2px"/><text text-anchor="middle" pointer-events="none" font-family="sans-serif" dy="1.5625" font-size="25" fill="#604A0E"/><text text-anchor="middle" pointer-events="none" y="5" font-size="10px" fill="#604A0E" font-family="sans-serif"> Wright</text></g></g></svg>